<svg xmlns="http://www.w3.org/2000/svg" xmlns:xlink="http://www.w3.org/1999/xlink" width="375" viewBox="0 0 375 375" height="375" version="1.0"><defs><clipPath id="a"><path d="M 3 13.292969 L 148 13.292969 L 148 361.804688 L 3 361.804688 Z M 3 13.292969"/></clipPath><clipPath id="b"><path d="M 229 13.292969 L 374 13.292969 L 374 361.804688 L 229 361.804688 Z M 229 13.292969"/></clipPath><g id="c"><path d="M 6.09375 2.484375 C 5.34375 1.429688 4.816406 0.34375 4.515625 -0.78125 C 4.210938 -1.914062 4.0625 -3.082031 4.0625 -4.28125 L 4.0625 -4.734375 C 4.0625 -4.734375 4.0625 -4.882812 4.0625 -5.1875 C 4.363281 -9.101562 5.71875 -11.738281 8.125 -13.09375 C 9.78125 -14.144531 12.1875 -14.671875 15.34375 -14.671875 C 18.507812 -14.671875 20.617188 -15.046875 21.671875 -15.796875 C 22.722656 -16.546875 23.320312 -17.453125 23.46875 -18.515625 C 23.925781 -20.460938 24.226562 -23.09375 24.375 -26.40625 L 24.375 -116.015625 C 24.226562 -119.328125 23.925781 -121.960938 23.46875 -123.921875 C 23.46875 -124.222656 23.390625 -124.523438 23.234375 -124.828125 C 23.085938 -125.128906 22.898438 -125.425781 22.671875 -125.71875 C 22.453125 -126.019531 22.117188 -126.25 21.671875 -126.40625 C 20.617188 -127.300781 18.507812 -127.75 15.34375 -127.75 L 14 -127.75 C 13.394531 -127.75 12.863281 -127.785156 12.40625 -127.859375 C 11.957031 -127.941406 11.394531 -128.019531 10.71875 -128.09375 C 10.039062 -128.164062 9.398438 -128.351562 8.796875 -128.65625 C 8.203125 -128.957031 7.675781 -129.410156 7.21875 -130.015625 C 6.914062 -130.160156 6.613281 -130.382812 6.3125 -130.6875 C 6.019531 -130.988281 5.796875 -131.25 5.640625 -131.46875 C 5.492188 -131.695312 5.34375 -131.960938 5.1875 -132.265625 C 5.039062 -132.566406 4.925781 -132.832031 4.84375 -133.0625 C 4.769531 -133.289062 4.695312 -133.59375 4.625 -133.96875 C 4.550781 -134.34375 4.472656 -134.601562 4.390625 -134.75 C 4.316406 -134.90625 4.28125 -135.171875 4.28125 -135.546875 C 4.28125 -135.921875 4.242188 -136.179688 4.171875 -136.328125 C 4.097656 -136.484375 4.0625 -136.710938 4.0625 -137.015625 C 4.0625 -137.316406 4.0625 -137.539062 4.0625 -137.6875 L 4.0625 -138.140625 C 4.207031 -140.703125 4.882812 -142.957031 6.09375 -144.90625 C 6.84375 -146.113281 7.894531 -147.054688 9.25 -147.734375 C 10.601562 -148.410156 12.035156 -148.75 13.546875 -148.75 L 13.765625 -148.75 C 23.703125 -148.300781 32.582031 -148.078125 40.40625 -148.078125 L 75.609375 -148.078125 C 90.960938 -148.078125 104.957031 -144.988281 117.59375 -138.8125 C 130.238281 -132.5 140.285156 -123.472656 147.734375 -111.734375 C 155.179688 -99.992188 158.90625 -86.222656 158.90625 -70.421875 C 158.90625 -53.867188 154.691406 -39.800781 146.265625 -28.21875 C 142.054688 -22.5 137.203125 -17.492188 131.703125 -13.203125 C 126.210938 -8.910156 120.15625 -5.335938 113.53125 -2.484375 C 100.445312 2.929688 86.453125 5.640625 71.546875 5.640625 L 40.40625 5.640625 C 39.050781 5.640625 37.695312 5.640625 36.34375 5.640625 C 34.988281 5.640625 33.59375 5.640625 32.15625 5.640625 C 30.726562 5.640625 29.300781 5.675781 27.875 5.75 C 26.445312 5.832031 24.941406 5.910156 23.359375 5.984375 C 21.773438 6.054688 20.191406 6.09375 18.609375 6.09375 C 17.035156 6.09375 15.421875 6.164062 13.765625 6.3125 L 13.546875 6.3125 C 10.378906 6.3125 7.894531 5.035156 6.09375 2.484375 Z M 109.25 -28.21875 C 116.625 -38 120.3125 -52.066406 120.3125 -70.421875 C 120.3125 -82.003906 118.28125 -92.238281 114.21875 -101.125 C 112.101562 -105.488281 109.613281 -109.363281 106.75 -112.75 C 103.894531 -116.132812 100.585938 -119.03125 96.828125 -121.4375 C 89.453125 -126.25 80.5 -128.65625 69.96875 -128.65625 L 58.015625 -128.4375 L 58.015625 -23.703125 C 58.015625 -19.941406 58.914062 -17.535156 60.71875 -16.484375 C 63.28125 -14.828125 68.019531 -14 74.9375 -14 C 90.738281 -14 102.175781 -18.738281 109.25 -28.21875 Z M 109.25 -28.21875"/></g></defs><g clip-path="url(#a)"><path fill="#007BFF" d="M 62.949219 74.59375 L 62.949219 140.378906 C 62.945312 141.3125 62.894531 142.246094 62.800781 143.175781 C 62.703125 144.105469 62.5625 145.03125 62.375 145.945312 C 62.191406 146.863281 61.960938 147.769531 61.683594 148.664062 C 61.410156 149.558594 61.09375 150.433594 60.730469 151.296875 C 60.371094 152.160156 59.96875 153.003906 59.527344 153.828125 C 59.082031 154.652344 58.601562 155.453125 58.078125 156.226562 C 57.558594 157.003906 57 157.753906 56.40625 158.476562 C 55.808594 159.199219 55.179688 159.890625 54.519531 160.550781 C 53.855469 161.210938 53.164062 161.835938 52.4375 162.429688 C 51.714844 163.019531 50.964844 163.578125 50.1875 164.097656 C 49.40625 164.617188 48.605469 165.09375 47.78125 165.535156 C 46.957031 165.976562 46.109375 166.375 45.246094 166.734375 C 44.382812 167.09375 43.503906 167.40625 42.609375 167.679688 C 41.714844 167.953125 40.808594 168.179688 39.890625 168.363281 C 38.972656 168.546875 38.046875 168.683594 37.117188 168.777344 C 36.1875 168.871094 35.253906 168.917969 34.316406 168.917969 L 3.476562 168.917969 L 3.476562 206.027344 L 34.316406 206.027344 C 35.257812 206.027344 36.195312 206.074219 37.128906 206.167969 C 38.0625 206.257812 38.992188 206.394531 39.914062 206.578125 C 40.835938 206.761719 41.746094 206.992188 42.644531 207.261719 C 43.542969 207.535156 44.425781 207.851562 45.292969 208.210938 C 46.160156 208.570312 47.007812 208.972656 47.839844 209.414062 C 48.667969 209.855469 49.472656 210.339844 50.253906 210.859375 C 51.035156 211.382812 51.785156 211.941406 52.511719 212.539062 C 53.238281 213.132812 53.933594 213.761719 54.597656 214.425781 C 55.261719 215.089844 55.894531 215.785156 56.488281 216.511719 C 57.085938 217.238281 57.644531 217.992188 58.164062 218.773438 C 58.6875 219.554688 59.171875 220.359375 59.613281 221.1875 C 60.054688 222.015625 60.457031 222.863281 60.816406 223.730469 C 61.175781 224.597656 61.492188 225.480469 61.765625 226.378906 C 62.039062 227.277344 62.265625 228.1875 62.449219 229.109375 C 62.632812 230.03125 62.769531 230.957031 62.863281 231.894531 C 62.953125 232.828125 63 233.765625 63 234.703125 L 63 300.488281 C 63.003906 301.5625 63.03125 302.636719 63.085938 303.707031 C 63.140625 304.78125 63.222656 305.851562 63.328125 306.917969 C 63.4375 307.988281 63.570312 309.050781 63.730469 310.113281 C 63.890625 311.175781 64.074219 312.234375 64.285156 313.285156 C 64.496094 314.339844 64.734375 315.382812 64.996094 316.425781 C 65.261719 317.46875 65.546875 318.5 65.863281 319.527344 C 66.175781 320.554688 66.511719 321.574219 66.875 322.582031 C 67.238281 323.59375 67.625 324.59375 68.039062 325.585938 C 68.449219 326.578125 68.886719 327.558594 69.347656 328.527344 C 69.808594 329.5 70.292969 330.457031 70.796875 331.402344 C 71.304688 332.351562 71.835938 333.28125 72.386719 334.203125 C 72.941406 335.125 73.515625 336.03125 74.113281 336.921875 C 74.710938 337.816406 75.328125 338.691406 75.96875 339.554688 C 76.609375 340.417969 77.269531 341.261719 77.953125 342.089844 C 78.632812 342.921875 79.335938 343.734375 80.058594 344.527344 C 80.777344 345.324219 81.519531 346.101562 82.277344 346.859375 C 83.039062 347.621094 83.816406 348.359375 84.609375 349.082031 C 85.40625 349.800781 86.21875 350.503906 87.050781 351.183594 C 87.878906 351.867188 88.726562 352.527344 89.585938 353.164062 C 90.449219 353.804688 91.328125 354.425781 92.21875 355.019531 C 93.113281 355.617188 94.019531 356.191406 94.941406 356.746094 C 95.863281 357.296875 96.796875 357.828125 97.742188 358.332031 C 98.6875 358.839844 99.648438 359.324219 100.617188 359.785156 C 101.589844 360.242188 102.570312 360.679688 103.5625 361.089844 C 104.550781 361.503906 105.554688 361.890625 106.566406 362.253906 C 107.574219 362.617188 108.59375 362.953125 109.621094 363.265625 C 110.648438 363.578125 111.683594 363.867188 112.722656 364.128906 C 113.765625 364.390625 114.8125 364.628906 115.867188 364.839844 C 116.917969 365.050781 117.976562 365.234375 119.039062 365.394531 C 120.101562 365.554688 121.164062 365.6875 122.234375 365.792969 C 123.300781 365.902344 124.371094 365.984375 125.445312 366.039062 C 126.519531 366.09375 127.589844 366.121094 128.664062 366.121094 L 147.222656 366.121094 L 147.222656 328.996094 L 128.664062 328.996094 C 127.726562 328.996094 126.789062 328.949219 125.855469 328.859375 C 124.917969 328.765625 123.992188 328.628906 123.070312 328.445312 C 122.148438 328.261719 121.238281 328.035156 120.339844 327.761719 C 119.441406 327.488281 118.558594 327.171875 117.6875 326.8125 C 116.820312 326.453125 115.972656 326.054688 115.144531 325.609375 C 114.316406 325.167969 113.511719 324.683594 112.730469 324.164062 C 111.949219 323.640625 111.195312 323.082031 110.46875 322.488281 C 109.742188 321.890625 109.046875 321.261719 108.382812 320.597656 C 107.71875 319.933594 107.089844 319.238281 106.492188 318.511719 C 105.898438 317.785156 105.339844 317.03125 104.816406 316.25 C 104.292969 315.472656 103.8125 314.667969 103.371094 313.839844 C 102.925781 313.011719 102.527344 312.160156 102.167969 311.292969 C 101.804688 310.425781 101.492188 309.542969 101.21875 308.644531 C 100.945312 307.746094 100.71875 306.835938 100.535156 305.914062 C 100.351562 304.992188 100.214844 304.066406 100.121094 303.132812 C 100.027344 302.195312 99.984375 301.257812 99.984375 300.320312 L 99.984375 234.535156 C 99.953125 228.429688 99.0625 222.449219 97.3125 216.597656 C 95.5625 210.746094 93.023438 205.261719 89.691406 200.140625 C 85.390625 204.007812 80.757812 207.421875 75.789062 210.378906 C 74.480469 211.140625 73.066406 211.523438 71.554688 211.527344 C 70.625 211.527344 69.71875 211.382812 68.839844 211.085938 C 67.957031 210.789062 67.148438 210.355469 66.410156 209.792969 C 65.671875 209.226562 65.046875 208.558594 64.527344 207.789062 C 64.011719 207.015625 63.632812 206.179688 63.390625 205.285156 C 63.148438 204.386719 63.058594 203.476562 63.117188 202.546875 C 63.179688 201.621094 63.386719 200.726562 63.742188 199.871094 C 64.097656 199.011719 64.582031 198.234375 65.191406 197.535156 C 65.804688 196.835938 66.515625 196.253906 67.320312 195.789062 C 72.277344 192.960938 76.789062 189.546875 80.859375 185.542969 C 84.929688 181.539062 88.417969 177.085938 91.328125 172.175781 C 94.160156 167.320312 96.3125 162.1875 97.78125 156.769531 C 99.25 151.347656 99.984375 145.835938 99.984375 140.226562 L 99.984375 74.441406 C 99.984375 73.5 100.027344 72.5625 100.121094 71.628906 C 100.214844 70.695312 100.351562 69.765625 100.535156 68.847656 C 100.71875 67.925781 100.945312 67.015625 101.21875 66.117188 C 101.492188 65.21875 101.804688 64.335938 102.167969 63.464844 C 102.527344 62.597656 102.925781 61.75 103.371094 60.921875 C 103.8125 60.09375 104.292969 59.289062 104.816406 58.507812 C 105.339844 57.726562 105.898438 56.976562 106.492188 56.25 C 107.089844 55.523438 107.71875 54.828125 108.382812 54.164062 C 109.046875 53.5 109.742188 52.871094 110.46875 52.273438 C 111.195312 51.679688 111.949219 51.121094 112.730469 50.597656 C 113.511719 50.074219 114.316406 49.59375 115.144531 49.152344 C 115.972656 48.707031 116.820312 48.308594 117.6875 47.949219 C 118.558594 47.589844 119.441406 47.273438 120.339844 47 C 121.238281 46.726562 122.148438 46.5 123.070312 46.316406 C 123.992188 46.132812 124.917969 45.996094 125.855469 45.902344 C 126.789062 45.8125 127.726562 45.765625 128.664062 45.765625 L 147.222656 45.765625 L 147.222656 8.957031 L 128.664062 8.957031 C 127.589844 8.960938 126.515625 8.988281 125.445312 9.042969 C 124.371094 9.09375 123.300781 9.175781 122.230469 9.28125 C 121.160156 9.386719 120.09375 9.519531 119.03125 9.679688 C 117.96875 9.839844 116.914062 10.023438 115.859375 10.234375 C 114.804688 10.445312 113.757812 10.679688 112.714844 10.941406 C 111.671875 11.203125 110.636719 11.492188 109.609375 11.804688 C 108.582031 12.117188 107.5625 12.453125 106.550781 12.816406 C 105.539062 13.175781 104.539062 13.5625 103.546875 13.976562 C 102.554688 14.386719 101.570312 14.824219 100.601562 15.28125 C 99.628906 15.742188 98.667969 16.226562 97.722656 16.730469 C 96.773438 17.238281 95.839844 17.765625 94.917969 18.320312 C 93.996094 18.871094 93.089844 19.445312 92.195312 20.042969 C 91.300781 20.640625 90.425781 21.257812 89.5625 21.898438 C 88.699219 22.539062 87.851562 23.199219 87.019531 23.878906 C 86.191406 24.558594 85.375 25.261719 84.578125 25.984375 C 83.785156 26.703125 83.003906 27.445312 82.246094 28.203125 C 81.484375 28.960938 80.742188 29.738281 80.023438 30.535156 C 79.300781 31.332031 78.597656 32.144531 77.914062 32.972656 C 77.234375 33.800781 76.570312 34.648438 75.929688 35.511719 C 75.289062 36.371094 74.671875 37.25 74.074219 38.144531 C 73.476562 39.035156 72.898438 39.941406 72.347656 40.863281 C 71.792969 41.785156 71.261719 42.71875 70.753906 43.664062 C 70.246094 44.609375 69.761719 45.570312 69.304688 46.539062 C 68.84375 47.511719 68.40625 48.492188 67.992188 49.484375 C 67.582031 50.476562 67.191406 51.476562 66.828125 52.488281 C 66.464844 53.5 66.128906 54.515625 65.8125 55.542969 C 65.5 56.570312 65.210938 57.605469 64.949219 58.648438 C 64.6875 59.691406 64.449219 60.738281 64.238281 61.789062 C 64.027344 62.84375 63.839844 63.902344 63.679688 64.964844 C 63.519531 66.023438 63.386719 67.089844 63.277344 68.160156 C 63.171875 69.226562 63.089844 70.300781 63.035156 71.371094 C 62.980469 72.445312 62.953125 73.519531 62.949219 74.59375 Z M 62.949219 74.59375"/></g><g clip-path="url(#b)"><path fill="#007BFF" d="M 342.398438 168.917969 C 341.457031 168.917969 340.523438 168.871094 339.585938 168.78125 C 338.652344 168.6875 337.722656 168.550781 336.800781 168.367188 C 335.882812 168.183594 334.972656 167.957031 334.070312 167.683594 C 333.171875 167.410156 332.289062 167.09375 331.421875 166.734375 C 330.554688 166.375 329.707031 165.976562 328.878906 165.53125 C 328.050781 165.089844 327.242188 164.609375 326.464844 164.085938 C 325.683594 163.5625 324.929688 163.003906 324.203125 162.410156 C 323.476562 161.8125 322.78125 161.183594 322.117188 160.519531 C 321.453125 159.855469 320.824219 159.160156 320.226562 158.433594 C 319.628906 157.707031 319.070312 156.953125 318.550781 156.175781 C 318.027344 155.394531 317.546875 154.589844 317.101562 153.761719 C 316.660156 152.933594 316.257812 152.085938 315.898438 151.214844 C 315.539062 150.347656 315.222656 149.464844 314.949219 148.566406 C 314.679688 147.667969 314.449219 146.757812 314.265625 145.835938 C 314.082031 144.914062 313.945312 143.988281 313.855469 143.054688 C 313.761719 142.117188 313.714844 141.183594 313.714844 140.242188 L 313.714844 74.457031 C 313.714844 73.382812 313.683594 72.3125 313.628906 71.238281 C 313.574219 70.167969 313.492188 69.097656 313.386719 68.027344 C 313.277344 66.960938 313.144531 65.894531 312.984375 64.835938 C 312.824219 63.773438 312.640625 62.714844 312.429688 61.664062 C 312.21875 60.609375 311.980469 59.5625 311.71875 58.523438 C 311.457031 57.480469 311.167969 56.449219 310.855469 55.421875 C 310.542969 54.394531 310.203125 53.375 309.839844 52.367188 C 309.476562 51.355469 309.089844 50.355469 308.679688 49.363281 C 308.265625 48.371094 307.832031 47.390625 307.371094 46.421875 C 306.910156 45.453125 306.425781 44.492188 305.917969 43.546875 C 305.414062 42.601562 304.882812 41.667969 304.332031 40.746094 C 303.777344 39.828125 303.203125 38.921875 302.605469 38.027344 C 302.007812 37.136719 301.390625 36.257812 300.75 35.398438 C 300.109375 34.535156 299.449219 33.691406 298.769531 32.859375 C 298.085938 32.03125 297.386719 31.21875 296.664062 30.421875 C 295.941406 29.628906 295.203125 28.851562 294.445312 28.089844 C 293.683594 27.332031 292.90625 26.59375 292.113281 25.871094 C 291.316406 25.152344 290.503906 24.449219 289.671875 23.769531 C 288.84375 23.085938 287.996094 22.425781 287.136719 21.785156 C 286.273438 21.148438 285.394531 20.527344 284.503906 19.929688 C 283.613281 19.335938 282.703125 18.761719 281.785156 18.207031 C 280.863281 17.65625 279.929688 17.125 278.984375 16.617188 C 278.039062 16.113281 277.078125 15.628906 276.109375 15.167969 C 275.140625 14.707031 274.15625 14.273438 273.167969 13.859375 C 272.175781 13.449219 271.175781 13.0625 270.164062 12.699219 C 269.152344 12.335938 268.132812 11.996094 267.105469 11.683594 C 266.082031 11.371094 265.046875 11.082031 264.003906 10.820312 C 262.964844 10.558594 261.917969 10.320312 260.863281 10.109375 C 259.8125 9.898438 258.753906 9.714844 257.691406 9.554688 C 256.628906 9.394531 255.566406 9.261719 254.496094 9.152344 C 253.429688 9.046875 252.359375 8.964844 251.285156 8.910156 C 250.214844 8.855469 249.140625 8.824219 248.066406 8.824219 L 229.507812 8.824219 L 229.507812 45.949219 L 248.066406 45.949219 C 249.007812 45.949219 249.945312 45.996094 250.878906 46.089844 C 251.8125 46.179688 252.742188 46.316406 253.664062 46.5 C 254.585938 46.683594 255.496094 46.914062 256.394531 47.183594 C 257.292969 47.457031 258.175781 47.773438 259.042969 48.132812 C 259.910156 48.492188 260.757812 48.894531 261.589844 49.335938 C 262.417969 49.777344 263.222656 50.261719 264.003906 50.78125 C 264.785156 51.304688 265.535156 51.863281 266.261719 52.460938 C 266.988281 53.054688 267.683594 53.683594 268.347656 54.347656 C 269.011719 55.011719 269.644531 55.707031 270.238281 56.433594 C 270.835938 57.160156 271.394531 57.914062 271.914062 58.695312 C 272.4375 59.476562 272.917969 60.28125 273.363281 61.109375 C 273.804688 61.9375 274.207031 62.785156 274.566406 63.652344 C 274.925781 64.519531 275.242188 65.402344 275.515625 66.300781 C 275.789062 67.199219 276.015625 68.109375 276.199219 69.03125 C 276.382812 69.953125 276.519531 70.878906 276.613281 71.816406 C 276.703125 72.75 276.75 73.6875 276.75 74.625 L 276.75 140.410156 C 276.777344 146.519531 277.671875 152.496094 279.429688 158.347656 C 281.183594 164.195312 283.734375 169.675781 287.074219 174.789062 C 291.367188 170.921875 295.996094 167.515625 300.960938 164.566406 C 301.4375 164.316406 301.933594 164.113281 302.453125 163.960938 C 302.96875 163.804688 303.492188 163.703125 304.03125 163.648438 C 304.566406 163.59375 305.101562 163.589844 305.640625 163.640625 C 306.175781 163.691406 306.703125 163.789062 307.222656 163.941406 C 307.738281 164.089844 308.238281 164.289062 308.71875 164.535156 C 309.195312 164.777344 309.648438 165.066406 310.074219 165.398438 C 310.496094 165.734375 310.886719 166.101562 311.238281 166.507812 C 311.59375 166.914062 311.90625 167.351562 312.175781 167.820312 C 312.445312 168.285156 312.667969 168.773438 312.84375 169.28125 C 313.019531 169.792969 313.144531 170.3125 313.222656 170.847656 C 313.296875 171.378906 313.324219 171.914062 313.296875 172.453125 C 313.269531 172.992188 313.191406 173.523438 313.066406 174.046875 C 312.9375 174.570312 312.757812 175.074219 312.535156 175.566406 C 312.308594 176.054688 312.039062 176.519531 311.726562 176.957031 C 311.410156 177.394531 311.058594 177.796875 310.667969 178.167969 C 310.273438 178.539062 309.851562 178.867188 309.398438 179.15625 C 304.429688 181.980469 299.910156 185.394531 295.835938 189.398438 C 291.757812 193.398438 288.265625 197.859375 285.355469 202.773438 C 282.527344 207.617188 280.382812 212.746094 278.917969 218.15625 C 277.453125 223.570312 276.71875 229.078125 276.714844 234.6875 L 276.714844 300.472656 C 276.714844 301.410156 276.667969 302.347656 276.578125 303.28125 C 276.484375 304.21875 276.347656 305.144531 276.164062 306.066406 C 275.980469 306.988281 275.753906 307.898438 275.480469 308.796875 C 275.207031 309.695312 274.890625 310.578125 274.53125 311.445312 C 274.171875 312.3125 273.773438 313.160156 273.328125 313.988281 C 272.886719 314.816406 272.402344 315.621094 271.882812 316.402344 C 271.359375 317.183594 270.800781 317.9375 270.207031 318.664062 C 269.609375 319.390625 268.980469 320.085938 268.316406 320.75 C 267.652344 321.414062 266.957031 322.042969 266.230469 322.640625 C 265.503906 323.234375 264.75 323.792969 263.96875 324.316406 C 263.1875 324.835938 262.382812 325.320312 261.554688 325.761719 C 260.726562 326.203125 259.878906 326.605469 259.007812 326.964844 C 258.140625 327.324219 257.257812 327.640625 256.359375 327.914062 C 255.460938 328.1875 254.550781 328.414062 253.628906 328.597656 C 252.707031 328.78125 251.78125 328.917969 250.84375 329.011719 C 249.910156 329.101562 248.972656 329.148438 248.035156 329.148438 L 229.472656 329.148438 L 229.472656 366.121094 L 248.035156 366.121094 C 249.105469 366.121094 250.179688 366.089844 251.253906 366.035156 C 252.324219 365.980469 253.394531 365.902344 254.464844 365.792969 C 255.53125 365.6875 256.597656 365.550781 257.660156 365.394531 C 258.71875 365.234375 259.777344 365.046875 260.832031 364.835938 C 261.882812 364.625 262.929688 364.386719 263.972656 364.125 C 265.011719 363.863281 266.046875 363.574219 267.074219 363.261719 C 268.101562 362.949219 269.121094 362.613281 270.128906 362.25 C 271.140625 361.886719 272.140625 361.5 273.132812 361.085938 C 274.125 360.675781 275.105469 360.238281 276.074219 359.777344 C 277.046875 359.320312 278.003906 358.835938 278.949219 358.328125 C 279.898438 357.820312 280.832031 357.292969 281.75 356.738281 C 282.671875 356.1875 283.578125 355.613281 284.46875 355.015625 C 285.363281 354.417969 286.238281 353.800781 287.101562 353.160156 C 287.964844 352.519531 288.808594 351.859375 289.640625 351.179688 C 290.46875 350.496094 291.28125 349.796875 292.078125 349.074219 C 292.875 348.355469 293.652344 347.613281 294.410156 346.855469 C 295.167969 346.097656 295.910156 345.320312 296.628906 344.523438 C 297.351562 343.726562 298.054688 342.914062 298.734375 342.085938 C 299.414062 341.257812 300.078125 340.410156 300.714844 339.546875 C 301.355469 338.6875 301.976562 337.808594 302.570312 336.917969 C 303.167969 336.023438 303.742188 335.117188 304.296875 334.199219 C 304.847656 333.277344 305.378906 332.34375 305.886719 331.398438 C 306.394531 330.453125 306.875 329.496094 307.335938 328.523438 C 307.796875 327.554688 308.234375 326.574219 308.644531 325.582031 C 309.054688 324.589844 309.445312 323.589844 309.808594 322.582031 C 310.171875 321.570312 310.507812 320.550781 310.820312 319.523438 C 311.132812 318.496094 311.421875 317.464844 311.683594 316.421875 C 311.949219 315.382812 312.183594 314.335938 312.394531 313.28125 C 312.605469 312.230469 312.792969 311.171875 312.953125 310.113281 C 313.113281 309.050781 313.246094 307.984375 313.351562 306.917969 C 313.460938 305.851562 313.539062 304.78125 313.597656 303.707031 C 313.652344 302.636719 313.679688 301.5625 313.683594 300.488281 L 313.683594 234.703125 C 313.683594 233.765625 313.734375 232.832031 313.828125 231.898438 C 313.921875 230.964844 314.0625 230.039062 314.246094 229.121094 C 314.433594 228.203125 314.664062 227.292969 314.9375 226.398438 C 315.210938 225.503906 315.527344 224.621094 315.890625 223.757812 C 316.25 222.890625 316.652344 222.046875 317.097656 221.21875 C 317.539062 220.394531 318.023438 219.589844 318.546875 218.8125 C 319.066406 218.035156 319.625 217.285156 320.222656 216.558594 C 320.820312 215.835938 321.449219 215.144531 322.113281 214.480469 C 322.777344 213.820312 323.472656 213.191406 324.195312 212.597656 C 324.921875 212.003906 325.675781 211.449219 326.457031 210.925781 C 327.234375 210.40625 328.039062 209.925781 328.867188 209.484375 C 329.695312 209.042969 330.539062 208.644531 331.40625 208.289062 C 332.273438 207.929688 333.15625 207.613281 334.054688 207.34375 C 334.949219 207.070312 335.859375 206.84375 336.777344 206.660156 C 337.699219 206.480469 338.625 206.339844 339.558594 206.25 C 340.492188 206.160156 341.425781 206.113281 342.363281 206.113281 L 373.207031 206.113281 L 373.207031 168.917969 Z M 342.398438 168.917969"/></g><g fill="#007BFF"><use x="106.101" y="269.228" xmlns:xlink="http://www.w3.org/1999/xlink" xlink:href="#c" xlink:type="simple" xlink:actuate="onLoad" xlink:show="embed"/></g></svg>