<svg xmlns="http://www.w3.org/2000/svg" xmlns:xlink="http://www.w3.org/1999/xlink" width="375" viewBox="0 0 375 375" height="375" version="1.0"><defs><clipPath id="a"><path d="M 4 11.601562 L 148 11.601562 L 148 367 L 4 367 Z M 4 11.601562"/></clipPath><clipPath id="b"><path d="M 229 11.601562 L 373 11.601562 L 373 367 L 229 367 Z M 229 11.601562"/></clipPath><g id="c"><path d="M 5.765625 2.34375 C 5.054688 1.351562 4.554688 0.328125 4.265625 -0.734375 C 3.984375 -1.804688 3.84375 -2.914062 3.84375 -4.0625 L 3.84375 -4.484375 C 3.84375 -4.484375 3.84375 -4.625 3.84375 -4.90625 C 4.125 -8.613281 5.40625 -11.109375 7.6875 -12.390625 C 9.25 -13.378906 11.523438 -13.875 14.515625 -13.875 C 17.515625 -13.875 19.507812 -14.234375 20.5 -14.953125 C 21.5 -15.660156 22.070312 -16.515625 22.21875 -17.515625 C 22.644531 -19.367188 22.925781 -21.859375 23.0625 -24.984375 L 23.0625 -109.78125 C 22.925781 -112.914062 22.644531 -115.40625 22.21875 -117.25 C 22.21875 -117.539062 22.144531 -117.828125 22 -118.109375 C 21.851562 -118.390625 21.671875 -118.671875 21.453125 -118.953125 C 21.242188 -119.242188 20.925781 -119.460938 20.5 -119.609375 C 19.507812 -120.460938 17.515625 -120.890625 14.515625 -120.890625 L 13.234375 -120.890625 C 12.671875 -120.890625 12.175781 -120.921875 11.75 -120.984375 C 11.320312 -121.054688 10.785156 -121.128906 10.140625 -121.203125 C 9.503906 -121.273438 8.898438 -121.453125 8.328125 -121.734375 C 7.753906 -122.023438 7.253906 -122.453125 6.828125 -123.015625 C 6.546875 -123.160156 6.257812 -123.375 5.96875 -123.65625 C 5.6875 -123.945312 5.472656 -124.195312 5.328125 -124.40625 C 5.191406 -124.625 5.050781 -124.875 4.90625 -125.15625 C 4.769531 -125.4375 4.664062 -125.679688 4.59375 -125.890625 C 4.519531 -126.109375 4.445312 -126.394531 4.375 -126.75 C 4.300781 -127.113281 4.226562 -127.363281 4.15625 -127.5 C 4.09375 -127.644531 4.0625 -127.894531 4.0625 -128.25 C 4.0625 -128.601562 4.023438 -128.851562 3.953125 -129 C 3.878906 -129.144531 3.84375 -129.359375 3.84375 -129.640625 C 3.84375 -129.921875 3.84375 -130.132812 3.84375 -130.28125 L 3.84375 -130.703125 C 3.988281 -133.128906 4.628906 -135.269531 5.765625 -137.125 C 6.472656 -138.257812 7.46875 -139.144531 8.75 -139.78125 C 10.03125 -140.425781 11.382812 -140.75 12.8125 -140.75 L 13.03125 -140.75 C 22.425781 -140.320312 30.828125 -140.109375 38.234375 -140.109375 L 71.546875 -140.109375 C 86.066406 -140.109375 99.3125 -137.1875 111.28125 -131.34375 C 123.238281 -125.363281 132.738281 -116.820312 139.78125 -105.71875 C 146.832031 -94.613281 150.359375 -81.585938 150.359375 -66.640625 C 150.359375 -50.972656 146.375 -37.660156 138.40625 -26.703125 C 134.414062 -21.285156 129.820312 -16.546875 124.625 -12.484375 C 119.425781 -8.429688 113.695312 -5.050781 107.4375 -2.34375 C 95.039062 2.78125 81.796875 5.34375 67.703125 5.34375 L 38.234375 5.34375 C 36.953125 5.34375 35.671875 5.34375 34.390625 5.34375 C 33.109375 5.34375 31.789062 5.34375 30.4375 5.34375 C 29.082031 5.34375 27.726562 5.375 26.375 5.4375 C 25.019531 5.507812 23.59375 5.582031 22.09375 5.65625 C 20.601562 5.726562 19.109375 5.765625 17.609375 5.765625 C 16.117188 5.765625 14.59375 5.835938 13.03125 5.984375 L 12.8125 5.984375 C 9.820312 5.984375 7.472656 4.769531 5.765625 2.34375 Z M 103.375 -26.703125 C 110.351562 -35.953125 113.84375 -49.265625 113.84375 -66.640625 C 113.84375 -77.597656 111.921875 -87.28125 108.078125 -95.6875 C 106.078125 -99.8125 103.722656 -103.472656 101.015625 -106.671875 C 98.316406 -109.878906 95.1875 -112.625 91.625 -114.90625 C 84.644531 -119.457031 76.171875 -121.734375 66.203125 -121.734375 L 54.890625 -121.53125 L 54.890625 -22.421875 C 54.890625 -18.867188 55.742188 -16.59375 57.453125 -15.59375 C 59.867188 -14.019531 64.351562 -13.234375 70.90625 -13.234375 C 85.851562 -13.234375 96.675781 -17.722656 103.375 -26.703125 Z M 103.375 -26.703125"/></g><g id="d"><path d="M 5.3125 2.171875 C 4.65625 1.242188 4.195312 0.289062 3.9375 -0.6875 C 3.675781 -1.675781 3.546875 -2.691406 3.546875 -3.734375 L 3.546875 -4.140625 C 3.546875 -4.140625 3.546875 -4.269531 3.546875 -4.53125 C 3.804688 -7.9375 4.988281 -10.234375 7.09375 -11.421875 C 8.53125 -12.335938 10.628906 -12.796875 13.390625 -12.796875 C 16.140625 -12.796875 17.972656 -13.125 18.890625 -13.78125 C 19.816406 -14.4375 20.34375 -15.222656 20.46875 -16.140625 C 20.863281 -17.847656 21.128906 -20.144531 21.265625 -23.03125 L 21.265625 -101.171875 C 21.128906 -104.066406 20.863281 -106.363281 20.46875 -108.0625 C 20.46875 -108.332031 20.398438 -108.597656 20.265625 -108.859375 C 20.140625 -109.117188 19.976562 -109.378906 19.78125 -109.640625 C 19.582031 -109.898438 19.285156 -110.097656 18.890625 -110.234375 C 17.972656 -111.015625 16.140625 -111.40625 13.390625 -111.40625 L 12.203125 -111.40625 C 11.679688 -111.40625 11.222656 -111.4375 10.828125 -111.5 C 10.429688 -111.570312 9.9375 -111.640625 9.34375 -111.703125 C 8.757812 -111.773438 8.203125 -111.941406 7.671875 -112.203125 C 7.148438 -112.460938 6.691406 -112.851562 6.296875 -113.375 C 6.035156 -113.507812 5.773438 -113.707031 5.515625 -113.96875 C 5.253906 -114.226562 5.054688 -114.457031 4.921875 -114.65625 C 4.785156 -114.851562 4.648438 -115.082031 4.515625 -115.34375 C 4.390625 -115.613281 4.296875 -115.84375 4.234375 -116.03125 C 4.171875 -116.226562 4.101562 -116.488281 4.03125 -116.8125 C 3.96875 -117.144531 3.898438 -117.378906 3.828125 -117.515625 C 3.765625 -117.648438 3.734375 -117.878906 3.734375 -118.203125 C 3.734375 -118.535156 3.703125 -118.765625 3.640625 -118.890625 C 3.578125 -119.023438 3.546875 -119.222656 3.546875 -119.484375 C 3.546875 -119.742188 3.546875 -119.941406 3.546875 -120.078125 L 3.546875 -120.46875 C 3.671875 -122.695312 4.257812 -124.664062 5.3125 -126.375 C 5.84375 -127.03125 6.46875 -127.617188 7.1875 -128.140625 C 7.90625 -128.671875 8.691406 -129.066406 9.546875 -129.328125 C 10.398438 -129.585938 11.21875 -129.71875 12 -129.71875 L 12.203125 -129.71875 C 16.398438 -129.457031 20.429688 -129.289062 24.296875 -129.21875 C 28.171875 -129.15625 31.816406 -129.125 35.234375 -129.125 C 42.972656 -129.125 51.109375 -129.320312 59.640625 -129.71875 L 59.84375 -129.71875 C 60.625 -129.71875 61.441406 -129.585938 62.296875 -129.328125 C 63.148438 -129.066406 63.9375 -128.671875 64.65625 -128.140625 C 65.382812 -127.617188 66.007812 -127.03125 66.53125 -126.375 C 67.1875 -125.457031 67.644531 -124.503906 67.90625 -123.515625 C 68.175781 -122.535156 68.3125 -121.519531 68.3125 -120.46875 L 68.3125 -120.078125 C 68.039062 -116.398438 66.859375 -113.972656 64.765625 -112.796875 C 64.109375 -112.265625 63.351562 -111.898438 62.5 -111.703125 C 61.644531 -111.503906 60.988281 -111.40625 60.53125 -111.40625 C 60.070312 -111.40625 59.382812 -111.40625 58.46875 -111.40625 C 55.707031 -111.40625 53.867188 -111.015625 52.953125 -110.234375 C 52.035156 -109.703125 51.507812 -108.976562 51.375 -108.0625 C 50.976562 -106.363281 50.71875 -104.066406 50.59375 -101.171875 L 50.59375 -71.25 L 102.5625 -71.25 L 102.5625 -101.171875 C 102.5625 -101.703125 102.523438 -102.257812 102.453125 -102.84375 C 102.390625 -103.4375 102.359375 -103.960938 102.359375 -104.421875 C 102.359375 -104.878906 102.320312 -105.335938 102.25 -105.796875 C 102.1875 -106.265625 102.125 -106.660156 102.0625 -106.984375 C 102 -107.316406 101.898438 -107.675781 101.765625 -108.0625 C 101.640625 -108.457031 101.476562 -108.851562 101.28125 -109.25 C 101.082031 -109.644531 100.71875 -109.972656 100.1875 -110.234375 C 99.269531 -111.015625 97.4375 -111.40625 94.6875 -111.40625 L 93.5 -111.40625 C 92.320312 -111.40625 91.269531 -111.503906 90.34375 -111.703125 C 89.425781 -111.898438 88.507812 -112.394531 87.59375 -113.1875 C 86.8125 -113.84375 86.1875 -114.660156 85.71875 -115.640625 C 85.257812 -116.628906 85 -117.351562 84.9375 -117.8125 C 84.875 -118.269531 84.773438 -119.023438 84.640625 -120.078125 L 84.640625 -120.46875 C 84.640625 -122.832031 85.296875 -124.867188 86.609375 -126.578125 C 88.316406 -128.671875 90.484375 -129.71875 93.109375 -129.71875 L 93.296875 -129.71875 C 97.503906 -129.457031 101.640625 -129.289062 105.703125 -129.21875 C 109.773438 -129.15625 113.78125 -129.125 117.71875 -129.125 C 119.15625 -129.125 120.59375 -129.125 122.03125 -129.125 C 123.476562 -129.125 124.988281 -129.15625 126.5625 -129.21875 C 128.144531 -129.289062 129.6875 -129.328125 131.1875 -129.328125 C 132.695312 -129.328125 134.269531 -129.359375 135.90625 -129.421875 C 137.550781 -129.484375 139.226562 -129.582031 140.9375 -129.71875 L 141.140625 -129.71875 C 144.023438 -129.71875 146.253906 -128.601562 147.828125 -126.375 C 149.003906 -124.664062 149.59375 -122.695312 149.59375 -120.46875 L 149.59375 -120.078125 C 149.332031 -116.398438 148.023438 -113.90625 145.671875 -112.59375 C 144.742188 -112.070312 143.851562 -111.742188 143 -111.609375 C 142.15625 -111.472656 141.078125 -111.40625 139.765625 -111.40625 C 138.710938 -111.40625 137.789062 -111.335938 137 -111.203125 C 136.21875 -111.078125 135.59375 -110.945312 135.125 -110.8125 C 134.664062 -110.6875 134.304688 -110.492188 134.046875 -110.234375 C 133.648438 -109.972656 133.351562 -109.707031 133.15625 -109.4375 C 132.96875 -109.175781 132.804688 -108.945312 132.671875 -108.75 C 132.535156 -108.5625 132.46875 -108.332031 132.46875 -108.0625 C 132.082031 -106.363281 131.820312 -104.066406 131.6875 -101.171875 L 131.6875 -23.03125 C 131.6875 -22.507812 131.71875 -21.953125 131.78125 -21.359375 C 131.851562 -20.765625 131.890625 -20.238281 131.890625 -19.78125 C 131.890625 -19.320312 131.921875 -18.863281 131.984375 -18.40625 C 132.046875 -17.945312 132.109375 -17.550781 132.171875 -17.21875 C 132.242188 -16.894531 132.34375 -16.535156 132.46875 -16.140625 C 132.601562 -15.347656 133.128906 -14.625 134.046875 -13.96875 C 135.097656 -13.1875 137.003906 -12.796875 139.765625 -12.796875 L 140.9375 -12.796875 C 143.300781 -12.796875 145.207031 -12.203125 146.65625 -11.015625 C 148.351562 -9.710938 149.332031 -7.421875 149.59375 -4.140625 L 149.59375 -3.734375 C 149.59375 -1.503906 149.003906 0.460938 147.828125 2.171875 C 147.304688 2.828125 146.679688 3.414062 145.953125 3.9375 C 145.234375 4.457031 144.445312 4.847656 143.59375 5.109375 C 142.738281 5.378906 141.921875 5.515625 141.140625 5.515625 L 140.9375 5.515625 C 132.539062 5.117188 124.734375 4.921875 117.515625 4.921875 C 109.898438 4.921875 101.828125 5.117188 93.296875 5.515625 L 93.109375 5.515625 C 90.484375 5.515625 88.316406 4.460938 86.609375 2.359375 C 85.296875 0.648438 84.640625 -1.378906 84.640625 -3.734375 L 84.640625 -4.140625 C 84.898438 -7.804688 86.210938 -10.296875 88.578125 -11.609375 C 89.492188 -12.140625 90.410156 -12.46875 91.328125 -12.59375 C 92.253906 -12.726562 93.375 -12.796875 94.6875 -12.796875 C 97.4375 -12.796875 99.269531 -13.125 100.1875 -13.78125 C 101.113281 -14.4375 101.640625 -15.222656 101.765625 -16.140625 C 102.160156 -17.847656 102.425781 -20.144531 102.5625 -23.03125 L 102.5625 -52.953125 L 50.59375 -52.953125 L 50.59375 -23.03125 C 50.71875 -21.457031 50.8125 -20.113281 50.875 -19 C 50.945312 -17.882812 51.113281 -16.929688 51.375 -16.140625 C 51.507812 -15.742188 51.671875 -15.347656 51.859375 -14.953125 C 52.054688 -14.566406 52.421875 -14.175781 52.953125 -13.78125 C 53.867188 -13.125 55.707031 -12.796875 58.46875 -12.796875 L 59.640625 -12.796875 C 62.140625 -12.796875 64.109375 -12.140625 65.546875 -10.828125 C 67.117188 -9.515625 68.039062 -7.285156 68.3125 -4.140625 L 68.3125 -3.734375 C 68.3125 -1.503906 67.71875 0.460938 66.53125 2.171875 C 66.007812 2.828125 65.382812 3.414062 64.65625 3.9375 C 63.9375 4.457031 63.148438 4.847656 62.296875 5.109375 C 61.441406 5.378906 60.625 5.515625 59.84375 5.515625 L 59.640625 5.515625 C 51.242188 5.117188 43.175781 4.921875 35.4375 4.921875 C 28.476562 4.921875 20.734375 5.117188 12.203125 5.515625 L 12 5.515625 C 9.113281 5.515625 6.882812 4.398438 5.3125 2.171875 Z M 5.3125 2.171875"/></g></defs><g clip-path="url(#a)"><path fill="#007BFF" d="M 63.878906 77.136719 L 63.878906 142.535156 C 63.871094 143.464844 63.824219 144.390625 63.726562 145.316406 C 63.632812 146.242188 63.492188 147.160156 63.308594 148.070312 C 63.125 148.980469 62.894531 149.882812 62.621094 150.769531 C 62.347656 151.660156 62.03125 152.53125 61.671875 153.390625 C 61.316406 154.25 60.914062 155.085938 60.476562 155.90625 C 60.035156 156.726562 59.554688 157.519531 59.035156 158.292969 C 58.519531 159.0625 57.964844 159.808594 57.371094 160.527344 C 56.78125 161.242188 56.15625 161.929688 55.5 162.585938 C 54.839844 163.246094 54.152344 163.867188 53.429688 164.457031 C 52.710938 165.046875 51.964844 165.597656 51.191406 166.113281 C 50.417969 166.628906 49.621094 167.105469 48.800781 167.546875 C 47.980469 167.984375 47.140625 168.378906 46.28125 168.734375 C 45.425781 169.09375 44.550781 169.40625 43.660156 169.675781 C 42.769531 169.945312 41.871094 170.171875 40.957031 170.355469 C 40.046875 170.535156 39.128906 170.675781 38.203125 170.765625 C 37.277344 170.859375 36.351562 170.90625 35.421875 170.90625 L 4.765625 170.90625 L 4.765625 207.800781 L 35.421875 207.800781 C 36.355469 207.800781 37.285156 207.84375 38.214844 207.9375 C 39.144531 208.027344 40.066406 208.164062 40.980469 208.347656 C 41.898438 208.527344 42.800781 208.753906 43.695312 209.027344 C 44.589844 209.296875 45.46875 209.613281 46.328125 209.96875 C 47.191406 210.324219 48.035156 210.726562 48.859375 211.164062 C 49.683594 211.605469 50.480469 212.085938 51.257812 212.601562 C 52.035156 213.121094 52.785156 213.675781 53.503906 214.269531 C 54.226562 214.863281 54.917969 215.488281 55.578125 216.148438 C 56.238281 216.808594 56.863281 217.5 57.457031 218.222656 C 58.050781 218.941406 58.605469 219.691406 59.125 220.46875 C 59.640625 221.246094 60.121094 222.042969 60.5625 222.867188 C 61 223.691406 61.398438 224.535156 61.757812 225.398438 C 62.113281 226.257812 62.429688 227.136719 62.699219 228.03125 C 62.972656 228.925781 63.199219 229.828125 63.378906 230.746094 C 63.5625 231.660156 63.699219 232.582031 63.789062 233.511719 C 63.882812 234.441406 63.925781 235.371094 63.925781 236.304688 L 63.925781 301.703125 C 63.929688 302.773438 63.957031 303.839844 64.011719 304.90625 C 64.066406 305.96875 64.148438 307.035156 64.253906 308.097656 C 64.363281 309.160156 64.496094 310.21875 64.652344 311.273438 C 64.8125 312.328125 64.996094 313.378906 65.207031 314.425781 C 65.417969 315.472656 65.652344 316.511719 65.914062 317.546875 C 66.175781 318.582031 66.460938 319.609375 66.773438 320.632812 C 67.082031 321.652344 67.417969 322.664062 67.78125 323.667969 C 68.140625 324.671875 68.527344 325.667969 68.9375 326.65625 C 69.347656 327.640625 69.78125 328.613281 70.238281 329.578125 C 70.695312 330.542969 71.175781 331.496094 71.679688 332.4375 C 72.183594 333.378906 72.710938 334.304688 73.257812 335.222656 C 73.808594 336.136719 74.378906 337.035156 74.972656 337.925781 C 75.566406 338.8125 76.183594 339.683594 76.820312 340.539062 C 77.453125 341.398438 78.113281 342.238281 78.789062 343.0625 C 79.464844 343.886719 80.164062 344.695312 80.878906 345.484375 C 81.597656 346.277344 82.332031 347.050781 83.089844 347.804688 C 83.84375 348.558594 84.617188 349.292969 85.40625 350.011719 C 86.199219 350.726562 87.003906 351.425781 87.832031 352.101562 C 88.65625 352.777344 89.496094 353.4375 90.355469 354.070312 C 91.210938 354.707031 92.082031 355.324219 92.96875 355.914062 C 93.859375 356.507812 94.757812 357.082031 95.675781 357.628906 C 96.589844 358.179688 97.515625 358.707031 98.457031 359.210938 C 99.398438 359.710938 100.351562 360.191406 101.316406 360.652344 C 102.28125 361.109375 103.257812 361.539062 104.242188 361.949219 C 105.226562 362.359375 106.222656 362.746094 107.226562 363.105469 C 108.230469 363.464844 109.246094 363.800781 110.265625 364.113281 C 111.285156 364.425781 112.316406 364.710938 113.347656 364.972656 C 114.382812 365.230469 115.425781 365.464844 116.472656 365.675781 C 117.519531 365.886719 118.570312 366.070312 119.625 366.230469 C 120.679688 366.386719 121.738281 366.519531 122.800781 366.625 C 123.863281 366.734375 124.925781 366.8125 125.992188 366.867188 C 127.058594 366.921875 128.125 366.949219 129.191406 366.953125 L 147.640625 366.953125 L 147.640625 330.042969 L 129.191406 330.042969 C 128.257812 330.042969 127.328125 330 126.398438 329.90625 C 125.46875 329.816406 124.546875 329.679688 123.632812 329.496094 C 122.714844 329.3125 121.8125 329.085938 120.917969 328.816406 C 120.023438 328.546875 119.144531 328.230469 118.285156 327.875 C 117.421875 327.515625 116.578125 327.117188 115.753906 326.679688 C 114.929688 326.238281 114.132812 325.757812 113.355469 325.238281 C 112.578125 324.722656 111.828125 324.164062 111.109375 323.574219 C 110.386719 322.980469 109.695312 322.355469 109.035156 321.695312 C 108.375 321.035156 107.75 320.34375 107.15625 319.621094 C 106.5625 318.898438 106.007812 318.152344 105.488281 317.375 C 104.972656 316.597656 104.492188 315.796875 104.050781 314.976562 C 103.613281 314.152344 103.214844 313.308594 102.855469 312.445312 C 102.5 311.582031 102.183594 310.707031 101.914062 309.8125 C 101.640625 308.917969 101.414062 308.015625 101.234375 307.097656 C 101.050781 306.183594 100.914062 305.261719 100.824219 304.332031 C 100.730469 303.402344 100.6875 302.46875 100.6875 301.535156 L 100.6875 236.136719 C 100.65625 230.066406 99.773438 224.121094 98.03125 218.304688 C 96.292969 212.488281 93.765625 207.035156 90.457031 201.945312 C 86.183594 205.792969 81.578125 209.183594 76.640625 212.125 C 75.339844 212.882812 73.933594 213.261719 72.429688 213.265625 C 71.507812 213.265625 70.605469 213.121094 69.730469 212.824219 C 68.855469 212.53125 68.050781 212.101562 67.320312 211.539062 C 66.585938 210.980469 65.960938 210.316406 65.449219 209.546875 C 64.933594 208.78125 64.554688 207.953125 64.316406 207.058594 C 64.078125 206.167969 63.988281 205.261719 64.046875 204.339844 C 64.105469 203.417969 64.3125 202.53125 64.664062 201.675781 C 65.019531 200.824219 65.5 200.050781 66.109375 199.355469 C 66.714844 198.660156 67.421875 198.082031 68.21875 197.621094 C 73.148438 194.808594 77.636719 191.414062 81.679688 187.433594 C 85.722656 183.457031 89.191406 179.023438 92.082031 174.144531 C 94.898438 169.320312 97.039062 164.214844 98.496094 158.828125 C 99.957031 153.441406 100.6875 147.960938 100.6875 142.382812 L 100.6875 76.984375 C 100.6875 76.050781 100.730469 75.121094 100.824219 74.191406 C 100.914062 73.261719 101.050781 72.339844 101.234375 71.421875 C 101.414062 70.507812 101.640625 69.601562 101.914062 68.710938 C 102.183594 67.816406 102.5 66.9375 102.855469 66.074219 C 103.214844 65.214844 103.613281 64.371094 104.050781 63.546875 C 104.492188 62.722656 104.972656 61.921875 105.488281 61.148438 C 106.007812 60.371094 106.5625 59.621094 107.15625 58.898438 C 107.75 58.179688 108.375 57.488281 109.035156 56.828125 C 109.695312 56.167969 110.386719 55.542969 111.109375 54.949219 C 111.828125 54.355469 112.578125 53.800781 113.355469 53.28125 C 114.132812 52.761719 114.929688 52.285156 115.753906 51.84375 C 116.578125 51.402344 117.421875 51.003906 118.285156 50.648438 C 119.144531 50.289062 120.023438 49.976562 120.917969 49.707031 C 121.8125 49.433594 122.714844 49.207031 123.632812 49.027344 C 124.546875 48.84375 125.46875 48.707031 126.398438 48.613281 C 127.328125 48.523438 128.257812 48.476562 129.191406 48.476562 L 147.640625 48.476562 L 147.640625 11.886719 L 129.191406 11.886719 C 128.125 11.890625 127.058594 11.917969 125.992188 11.972656 C 124.925781 12.023438 123.859375 12.105469 122.796875 12.210938 C 121.734375 12.316406 120.675781 12.449219 119.621094 12.605469 C 118.5625 12.761719 117.511719 12.945312 116.464844 13.15625 C 115.417969 13.363281 114.375 13.597656 113.339844 13.859375 C 112.304688 14.121094 111.277344 14.40625 110.253906 14.714844 C 109.234375 15.027344 108.21875 15.363281 107.214844 15.722656 C 106.207031 16.082031 105.210938 16.46875 104.226562 16.875 C 103.238281 17.285156 102.265625 17.71875 101.300781 18.175781 C 100.332031 18.632812 99.378906 19.113281 98.4375 19.617188 C 97.496094 20.117188 96.566406 20.644531 95.652344 21.195312 C 94.734375 21.742188 93.835938 22.3125 92.945312 22.90625 C 92.058594 23.5 91.183594 24.117188 90.328125 24.75 C 89.46875 25.386719 88.628906 26.042969 87.800781 26.722656 C 86.976562 27.398438 86.167969 28.09375 85.375 28.8125 C 84.585938 29.527344 83.8125 30.265625 83.054688 31.019531 C 82.300781 31.773438 81.5625 32.546875 80.847656 33.335938 C 80.128906 34.128906 79.429688 34.9375 78.753906 35.761719 C 78.074219 36.585938 77.417969 37.425781 76.78125 38.285156 C 76.144531 39.140625 75.527344 40.015625 74.933594 40.902344 C 74.339844 41.789062 73.769531 42.691406 73.21875 43.605469 C 72.667969 44.519531 72.140625 45.449219 71.636719 46.390625 C 71.132812 47.332031 70.652344 48.285156 70.191406 49.25 C 69.734375 50.214844 69.300781 51.1875 68.890625 52.175781 C 68.480469 53.160156 68.09375 54.15625 67.734375 55.160156 C 67.371094 56.164062 67.035156 57.179688 66.722656 58.199219 C 66.414062 59.222656 66.125 60.25 65.863281 61.285156 C 65.605469 62.320312 65.367188 63.363281 65.15625 64.410156 C 64.949219 65.457031 64.761719 66.507812 64.605469 67.5625 C 64.445312 68.621094 64.3125 69.679688 64.207031 70.742188 C 64.097656 71.804688 64.019531 72.867188 63.964844 73.933594 C 63.910156 75 63.878906 76.066406 63.878906 77.136719 Z M 63.878906 77.136719"/></g><g clip-path="url(#b)"><path fill="#007BFF" d="M 341.625 170.90625 C 340.691406 170.90625 339.761719 170.863281 338.832031 170.769531 C 337.902344 170.679688 336.980469 170.542969 336.0625 170.359375 C 335.148438 170.175781 334.242188 169.949219 333.347656 169.679688 C 332.457031 169.410156 331.578125 169.09375 330.714844 168.738281 C 329.851562 168.378906 329.011719 167.980469 328.1875 167.542969 C 327.363281 167.101562 326.5625 166.621094 325.785156 166.101562 C 325.011719 165.585938 324.261719 165.027344 323.539062 164.4375 C 322.816406 163.84375 322.128906 163.21875 321.46875 162.558594 C 320.808594 161.898438 320.179688 161.207031 319.589844 160.484375 C 318.996094 159.761719 318.441406 159.015625 317.921875 158.238281 C 317.402344 157.460938 316.921875 156.660156 316.484375 155.839844 C 316.042969 155.015625 315.644531 154.171875 315.289062 153.308594 C 314.929688 152.445312 314.617188 151.570312 314.34375 150.675781 C 314.074219 149.78125 313.847656 148.878906 313.664062 147.960938 C 313.484375 147.046875 313.347656 146.125 313.253906 145.195312 C 313.164062 144.265625 313.117188 143.335938 313.117188 142.398438 L 313.117188 77 C 313.113281 75.933594 313.085938 74.867188 313.03125 73.800781 C 312.976562 72.738281 312.894531 71.671875 312.789062 70.609375 C 312.683594 69.550781 312.550781 68.492188 312.390625 67.433594 C 312.234375 66.378906 312.046875 65.328125 311.839844 64.28125 C 311.628906 63.238281 311.394531 62.195312 311.132812 61.160156 C 310.871094 60.125 310.585938 59.097656 310.273438 58.078125 C 309.960938 57.058594 309.625 56.042969 309.265625 55.039062 C 308.90625 54.035156 308.519531 53.042969 308.109375 52.054688 C 307.699219 51.070312 307.265625 50.09375 306.808594 49.132812 C 306.351562 48.167969 305.871094 47.214844 305.367188 46.273438 C 304.863281 45.332031 304.339844 44.40625 303.789062 43.492188 C 303.238281 42.574219 302.667969 41.675781 302.074219 40.789062 C 301.480469 39.902344 300.867188 39.027344 300.230469 38.171875 C 299.59375 37.316406 298.9375 36.472656 298.261719 35.648438 C 297.582031 34.824219 296.886719 34.015625 296.167969 33.226562 C 295.453125 32.4375 294.71875 31.664062 293.960938 30.910156 C 293.207031 30.152344 292.433594 29.417969 291.644531 28.703125 C 290.855469 27.984375 290.046875 27.289062 289.222656 26.609375 C 288.398438 25.933594 287.554688 25.277344 286.699219 24.640625 C 285.84375 24.003906 284.96875 23.390625 284.082031 22.796875 C 283.195312 22.203125 282.296875 21.632812 281.378906 21.082031 C 280.464844 20.535156 279.539062 20.007812 278.597656 19.503906 C 277.65625 19 276.703125 18.519531 275.738281 18.0625 C 274.773438 17.605469 273.800781 17.171875 272.816406 16.761719 C 271.828125 16.351562 270.835938 15.964844 269.832031 15.605469 C 268.824219 15.246094 267.8125 14.910156 266.792969 14.597656 C 265.773438 14.285156 264.742188 14 263.710938 13.738281 C 262.675781 13.476562 261.632812 13.242188 260.585938 13.03125 C 259.542969 12.824219 258.492188 12.636719 257.433594 12.480469 C 256.378906 12.320312 255.320312 12.1875 254.257812 12.082031 C 253.199219 11.976562 252.132812 11.894531 251.066406 11.839844 C 250.003906 11.785156 248.9375 11.757812 247.867188 11.753906 L 229.421875 11.753906 L 229.421875 48.664062 L 247.867188 48.664062 C 248.800781 48.664062 249.734375 48.707031 250.664062 48.800781 C 251.59375 48.890625 252.515625 49.027344 253.429688 49.210938 C 254.347656 49.390625 255.25 49.617188 256.144531 49.890625 C 257.039062 50.160156 257.914062 50.476562 258.777344 50.832031 C 259.640625 51.191406 260.484375 51.589844 261.308594 52.027344 C 262.128906 52.46875 262.929688 52.949219 263.707031 53.464844 C 264.484375 53.984375 265.230469 54.539062 265.953125 55.132812 C 266.675781 55.726562 267.367188 56.351562 268.027344 57.011719 C 268.6875 57.671875 269.3125 58.363281 269.90625 59.085938 C 270.496094 59.804688 271.054688 60.554688 271.570312 61.332031 C 272.089844 62.109375 272.570312 62.90625 273.011719 63.730469 C 273.449219 64.554688 273.847656 65.398438 274.207031 66.261719 C 274.5625 67.121094 274.878906 68 275.148438 68.894531 C 275.417969 69.789062 275.644531 70.691406 275.828125 71.609375 C 276.011719 72.523438 276.148438 73.445312 276.238281 74.375 C 276.332031 75.304688 276.375 76.234375 276.375 77.167969 L 276.375 142.566406 C 276.40625 148.640625 277.292969 154.582031 279.039062 160.398438 C 280.785156 166.210938 283.316406 171.660156 286.640625 176.742188 C 290.902344 172.898438 295.503906 169.511719 300.441406 166.582031 C 300.914062 166.332031 301.410156 166.132812 301.921875 165.976562 C 302.433594 165.824219 302.957031 165.722656 303.492188 165.667969 C 304.023438 165.613281 304.558594 165.613281 305.089844 165.660156 C 305.625 165.710938 306.148438 165.808594 306.664062 165.957031 C 307.175781 166.105469 307.671875 166.304688 308.148438 166.546875 C 308.625 166.792969 309.074219 167.078125 309.496094 167.410156 C 309.917969 167.742188 310.304688 168.109375 310.65625 168.511719 C 311.007812 168.917969 311.316406 169.351562 311.585938 169.8125 C 311.851562 170.277344 312.074219 170.761719 312.25 171.269531 C 312.425781 171.777344 312.550781 172.292969 312.625 172.824219 C 312.703125 173.355469 312.726562 173.886719 312.699219 174.421875 C 312.675781 174.957031 312.597656 175.484375 312.46875 176.003906 C 312.34375 176.523438 312.167969 177.027344 311.941406 177.515625 C 311.71875 178.003906 311.449219 178.464844 311.136719 178.898438 C 310.828125 179.332031 310.476562 179.734375 310.085938 180.101562 C 309.695312 180.472656 309.277344 180.796875 308.824219 181.085938 C 303.890625 183.894531 299.394531 187.285156 295.34375 191.265625 C 291.292969 195.246094 287.824219 199.675781 284.929688 204.5625 C 282.121094 209.378906 279.988281 214.476562 278.53125 219.855469 C 277.074219 225.238281 276.347656 230.714844 276.34375 236.289062 L 276.34375 301.6875 C 276.34375 302.621094 276.296875 303.554688 276.207031 304.480469 C 276.113281 305.410156 275.976562 306.332031 275.792969 307.25 C 275.613281 308.164062 275.386719 309.070312 275.113281 309.964844 C 274.84375 310.855469 274.53125 311.734375 274.171875 312.597656 C 273.816406 313.460938 273.417969 314.300781 272.976562 315.125 C 272.535156 315.949219 272.058594 316.75 271.539062 317.527344 C 271.019531 318.300781 270.464844 319.050781 269.871094 319.773438 C 269.28125 320.496094 268.652344 321.183594 267.992188 321.84375 C 267.332031 322.503906 266.640625 323.132812 265.921875 323.722656 C 265.199219 324.316406 264.449219 324.871094 263.671875 325.390625 C 262.898438 325.910156 262.097656 326.386719 261.273438 326.828125 C 260.449219 327.269531 259.605469 327.667969 258.746094 328.023438 C 257.882812 328.382812 257.003906 328.695312 256.109375 328.96875 C 255.21875 329.238281 254.3125 329.464844 253.398438 329.648438 C 252.480469 329.828125 251.558594 329.964844 250.628906 330.058594 C 249.699219 330.148438 248.769531 330.195312 247.835938 330.195312 L 229.390625 330.195312 L 229.390625 366.953125 L 247.835938 366.953125 C 248.902344 366.949219 249.96875 366.921875 251.035156 366.867188 C 252.101562 366.8125 253.164062 366.730469 254.226562 366.625 C 255.289062 366.519531 256.347656 366.386719 257.402344 366.226562 C 258.457031 366.066406 259.507812 365.882812 260.554688 365.671875 C 261.601562 365.464844 262.640625 365.226562 263.675781 364.96875 C 264.710938 364.707031 265.738281 364.421875 266.757812 364.109375 C 267.78125 363.796875 268.792969 363.460938 269.796875 363.101562 C 270.800781 362.738281 271.796875 362.355469 272.78125 361.945312 C 273.765625 361.535156 274.742188 361.101562 275.707031 360.644531 C 276.671875 360.1875 277.621094 359.707031 278.5625 359.203125 C 279.503906 358.699219 280.433594 358.171875 281.347656 357.625 C 282.261719 357.074219 283.164062 356.503906 284.050781 355.910156 C 284.9375 355.316406 285.808594 354.703125 286.664062 354.066406 C 287.523438 353.429688 288.363281 352.773438 289.1875 352.097656 C 290.011719 351.417969 290.820312 350.722656 291.609375 350.003906 C 292.402344 349.289062 293.175781 348.550781 293.929688 347.796875 C 294.683594 347.042969 295.417969 346.269531 296.136719 345.480469 C 296.851562 344.6875 297.550781 343.882812 298.226562 343.058594 C 298.902344 342.230469 299.5625 341.390625 300.195312 340.535156 C 300.832031 339.675781 301.449219 338.804688 302.042969 337.917969 C 302.632812 337.03125 303.207031 336.128906 303.753906 335.214844 C 304.304688 334.300781 304.832031 333.375 305.335938 332.433594 C 305.839844 331.492188 306.320312 330.539062 306.777344 329.574219 C 307.234375 328.609375 307.667969 327.636719 308.078125 326.652344 C 308.488281 325.664062 308.871094 324.671875 309.230469 323.664062 C 309.59375 322.660156 309.929688 321.648438 310.242188 320.628906 C 310.550781 319.609375 310.835938 318.578125 311.097656 317.546875 C 311.359375 316.511719 311.59375 315.46875 311.804688 314.421875 C 312.015625 313.378906 312.199219 312.328125 312.359375 311.269531 C 312.515625 310.214844 312.648438 309.15625 312.757812 308.09375 C 312.863281 307.035156 312.945312 305.96875 313 304.902344 C 313.054688 303.839844 313.082031 302.773438 313.082031 301.703125 L 313.082031 236.304688 C 313.085938 235.375 313.136719 234.445312 313.230469 233.515625 C 313.324219 232.589844 313.460938 231.671875 313.644531 230.757812 C 313.828125 229.84375 314.058594 228.941406 314.332031 228.050781 C 314.605469 227.160156 314.917969 226.28125 315.277344 225.421875 C 315.636719 224.5625 316.035156 223.722656 316.476562 222.902344 C 316.917969 222.078125 317.398438 221.28125 317.917969 220.507812 C 318.4375 219.734375 318.992188 218.988281 319.585938 218.269531 C 320.175781 217.550781 320.804688 216.859375 321.464844 216.203125 C 322.121094 215.542969 322.8125 214.921875 323.535156 214.332031 C 324.253906 213.738281 325.003906 213.1875 325.78125 212.667969 C 326.554688 212.152344 327.355469 211.675781 328.175781 211.238281 C 329 210.796875 329.839844 210.402344 330.703125 210.042969 C 331.5625 209.6875 332.4375 209.375 333.332031 209.105469 C 334.222656 208.835938 335.125 208.609375 336.039062 208.429688 C 336.953125 208.246094 337.875 208.109375 338.800781 208.019531 C 339.730469 207.929688 340.660156 207.882812 341.589844 207.882812 L 372.246094 207.882812 L 372.246094 170.90625 Z M 341.625 170.90625"/></g><g fill="#007BFF"><use x="79.624" y="231.777" xmlns:xlink="http://www.w3.org/1999/xlink" xlink:href="#c" xlink:type="simple" xlink:actuate="onLoad" xlink:show="embed"/></g><g fill="#007BFF"><use x="140.915" y="314.597" xmlns:xlink="http://www.w3.org/1999/xlink" xlink:href="#d" xlink:type="simple" xlink:actuate="onLoad" xlink:show="embed"/></g></svg>