<svg xmlns="http://www.w3.org/2000/svg" xmlns:xlink="http://www.w3.org/1999/xlink" width="375" viewBox="0 0 375 375" height="375" version="1.0"><defs><clipPath id="a"><path d="M 4 10 L 148 10 L 148 365.421875 L 4 365.421875 Z M 4 10"/></clipPath><clipPath id="b"><path d="M 229 10 L 373 10 L 373 365.421875 L 229 365.421875 Z M 229 10"/></clipPath><g id="c"><path d="M 5.515625 2.25 C 4.828125 1.289062 4.347656 0.300781 4.078125 -0.71875 C 3.804688 -1.738281 3.671875 -2.789062 3.671875 -3.875 L 3.671875 -4.28125 C 3.671875 -4.28125 3.671875 -4.414062 3.671875 -4.6875 C 3.941406 -8.226562 5.164062 -10.613281 7.34375 -11.84375 C 8.84375 -12.789062 11.019531 -13.265625 13.875 -13.265625 C 16.738281 -13.265625 18.644531 -13.601562 19.59375 -14.28125 C 20.550781 -14.96875 21.097656 -15.785156 21.234375 -16.734375 C 21.640625 -18.503906 21.910156 -20.882812 22.046875 -23.875 L 22.046875 -104.921875 C 21.910156 -107.910156 21.640625 -110.289062 21.234375 -112.0625 C 21.234375 -112.332031 21.164062 -112.601562 21.03125 -112.875 C 20.894531 -113.15625 20.722656 -113.429688 20.515625 -113.703125 C 20.304688 -113.972656 20 -114.175781 19.59375 -114.3125 C 18.644531 -115.125 16.738281 -115.53125 13.875 -115.53125 L 12.65625 -115.53125 C 12.113281 -115.53125 11.632812 -115.5625 11.21875 -115.625 C 10.8125 -115.695312 10.300781 -115.765625 9.6875 -115.828125 C 9.082031 -115.898438 8.503906 -116.070312 7.953125 -116.34375 C 7.410156 -116.625 6.9375 -117.035156 6.53125 -117.578125 C 6.257812 -117.710938 5.988281 -117.914062 5.71875 -118.1875 C 5.445312 -118.457031 5.242188 -118.691406 5.109375 -118.890625 C 4.972656 -119.097656 4.832031 -119.335938 4.6875 -119.609375 C 4.550781 -119.890625 4.445312 -120.128906 4.375 -120.328125 C 4.3125 -120.535156 4.242188 -120.804688 4.171875 -121.140625 C 4.109375 -121.484375 4.039062 -121.722656 3.96875 -121.859375 C 3.90625 -121.992188 3.875 -122.234375 3.875 -122.578125 C 3.875 -122.921875 3.835938 -123.160156 3.765625 -123.296875 C 3.703125 -123.429688 3.671875 -123.632812 3.671875 -123.90625 C 3.671875 -124.175781 3.671875 -124.378906 3.671875 -124.515625 L 3.671875 -124.921875 C 3.804688 -127.234375 4.421875 -129.273438 5.515625 -131.046875 C 6.191406 -132.140625 7.140625 -132.988281 8.359375 -133.59375 C 9.585938 -134.207031 10.882812 -134.515625 12.25 -134.515625 L 12.453125 -134.515625 C 21.429688 -134.109375 29.457031 -133.90625 36.53125 -133.90625 L 68.375 -133.90625 C 82.257812 -133.90625 94.914062 -131.113281 106.34375 -125.53125 C 117.78125 -119.820312 126.863281 -111.660156 133.59375 -101.046875 C 140.332031 -90.429688 143.703125 -77.976562 143.703125 -63.6875 C 143.703125 -48.71875 139.890625 -35.992188 132.265625 -25.515625 C 128.460938 -20.347656 124.078125 -15.820312 119.109375 -11.9375 C 114.140625 -8.0625 108.660156 -4.832031 102.671875 -2.25 C 90.835938 2.65625 78.179688 5.109375 64.703125 5.109375 L 36.53125 5.109375 C 35.3125 5.109375 34.085938 5.109375 32.859375 5.109375 C 31.640625 5.109375 30.382812 5.109375 29.09375 5.109375 C 27.800781 5.109375 26.503906 5.140625 25.203125 5.203125 C 23.910156 5.273438 22.550781 5.34375 21.125 5.40625 C 19.695312 5.476562 18.269531 5.515625 16.84375 5.515625 C 15.414062 5.515625 13.953125 5.582031 12.453125 5.71875 L 12.25 5.71875 C 9.382812 5.71875 7.140625 4.5625 5.515625 2.25 Z M 98.796875 -25.515625 C 105.460938 -34.359375 108.796875 -47.082031 108.796875 -63.6875 C 108.796875 -74.164062 106.957031 -83.421875 103.28125 -91.453125 C 101.375 -95.398438 99.128906 -98.898438 96.546875 -101.953125 C 93.960938 -105.015625 90.96875 -107.632812 87.5625 -109.8125 C 80.894531 -114.164062 72.800781 -116.34375 63.28125 -116.34375 L 52.453125 -116.140625 L 52.453125 -21.4375 C 52.453125 -18.03125 53.269531 -15.851562 54.90625 -14.90625 C 57.21875 -13.40625 61.503906 -12.65625 67.765625 -12.65625 C 82.054688 -12.65625 92.398438 -16.941406 98.796875 -25.515625 Z M 98.796875 -25.515625"/></g><g id="d"><path d="M 5.078125 2.0625 C 4.453125 1.1875 4.015625 0.28125 3.765625 -0.65625 C 3.515625 -1.59375 3.390625 -2.566406 3.390625 -3.578125 L 3.390625 -3.953125 C 3.390625 -3.953125 3.390625 -4.078125 3.390625 -4.328125 C 3.640625 -7.585938 4.765625 -9.78125 6.765625 -10.90625 C 8.148438 -11.789062 10.160156 -12.234375 12.796875 -12.234375 C 15.429688 -12.234375 17.1875 -12.546875 18.0625 -13.171875 C 18.9375 -13.796875 19.4375 -14.546875 19.5625 -15.421875 C 19.9375 -17.054688 20.1875 -19.253906 20.3125 -22.015625 L 20.3125 -96.703125 C 20.1875 -99.453125 19.9375 -101.644531 19.5625 -103.28125 C 19.5625 -103.53125 19.5 -103.78125 19.375 -104.03125 C 19.25 -104.28125 19.09375 -104.53125 18.90625 -104.78125 C 18.71875 -105.03125 18.4375 -105.21875 18.0625 -105.34375 C 17.1875 -106.101562 15.429688 -106.484375 12.796875 -106.484375 L 11.65625 -106.484375 C 11.15625 -106.484375 10.71875 -106.515625 10.34375 -106.578125 C 9.96875 -106.640625 9.5 -106.703125 8.9375 -106.765625 C 8.375 -106.828125 7.835938 -106.984375 7.328125 -107.234375 C 6.828125 -107.484375 6.390625 -107.859375 6.015625 -108.359375 C 5.765625 -108.484375 5.515625 -108.671875 5.265625 -108.921875 C 5.015625 -109.171875 4.828125 -109.390625 4.703125 -109.578125 C 4.578125 -109.765625 4.453125 -109.984375 4.328125 -110.234375 C 4.203125 -110.492188 4.109375 -110.71875 4.046875 -110.90625 C 3.984375 -111.09375 3.921875 -111.34375 3.859375 -111.65625 C 3.796875 -111.96875 3.734375 -112.1875 3.671875 -112.3125 C 3.609375 -112.4375 3.578125 -112.65625 3.578125 -112.96875 C 3.578125 -113.28125 3.546875 -113.5 3.484375 -113.625 C 3.421875 -113.75 3.390625 -113.9375 3.390625 -114.1875 C 3.390625 -114.4375 3.390625 -114.625 3.390625 -114.75 L 3.390625 -115.125 C 3.515625 -117.257812 4.078125 -119.144531 5.078125 -120.78125 C 5.578125 -121.40625 6.171875 -121.96875 6.859375 -122.46875 C 7.554688 -122.96875 8.3125 -123.34375 9.125 -123.59375 C 9.9375 -123.84375 10.71875 -123.96875 11.46875 -123.96875 L 11.65625 -123.96875 C 15.675781 -123.71875 19.535156 -123.5625 23.234375 -123.5 C 26.929688 -123.4375 30.410156 -123.40625 33.671875 -123.40625 C 41.078125 -123.40625 48.851562 -123.59375 57 -123.96875 L 57.1875 -123.96875 C 57.9375 -123.96875 58.71875 -123.84375 59.53125 -123.59375 C 60.351562 -123.34375 61.109375 -122.96875 61.796875 -122.46875 C 62.484375 -121.96875 63.082031 -121.40625 63.59375 -120.78125 C 64.21875 -119.894531 64.65625 -118.984375 64.90625 -118.046875 C 65.15625 -117.109375 65.28125 -116.132812 65.28125 -115.125 L 65.28125 -114.75 C 65.03125 -111.238281 63.898438 -108.921875 61.890625 -107.796875 C 61.265625 -107.296875 60.539062 -106.953125 59.71875 -106.765625 C 58.90625 -106.578125 58.28125 -106.484375 57.84375 -106.484375 C 57.40625 -106.484375 56.75 -106.484375 55.875 -106.484375 C 53.238281 -106.484375 51.484375 -106.101562 50.609375 -105.34375 C 49.722656 -104.84375 49.21875 -104.15625 49.09375 -103.28125 C 48.71875 -101.644531 48.46875 -99.453125 48.34375 -96.703125 L 48.34375 -68.09375 L 98.015625 -68.09375 L 98.015625 -96.703125 C 98.015625 -97.203125 97.984375 -97.734375 97.921875 -98.296875 C 97.859375 -98.859375 97.828125 -99.359375 97.828125 -99.796875 C 97.828125 -100.234375 97.796875 -100.671875 97.734375 -101.109375 C 97.671875 -101.554688 97.609375 -101.9375 97.546875 -102.25 C 97.484375 -102.5625 97.390625 -102.90625 97.265625 -103.28125 C 97.140625 -103.65625 96.984375 -104.03125 96.796875 -104.40625 C 96.609375 -104.78125 96.257812 -105.09375 95.75 -105.34375 C 94.875 -106.101562 93.117188 -106.484375 90.484375 -106.484375 L 89.359375 -106.484375 C 88.234375 -106.484375 87.226562 -106.578125 86.34375 -106.765625 C 85.46875 -106.953125 84.59375 -107.421875 83.71875 -108.171875 C 82.96875 -108.796875 82.367188 -109.578125 81.921875 -110.515625 C 81.484375 -111.460938 81.234375 -112.15625 81.171875 -112.59375 C 81.109375 -113.03125 81.015625 -113.75 80.890625 -114.75 L 80.890625 -115.125 C 80.890625 -117.382812 81.519531 -119.332031 82.78125 -120.96875 C 84.40625 -122.96875 86.472656 -123.96875 88.984375 -123.96875 L 89.171875 -123.96875 C 93.179688 -123.71875 97.128906 -123.5625 101.015625 -123.5 C 104.910156 -123.4375 108.738281 -123.40625 112.5 -123.40625 C 113.875 -123.40625 115.25 -123.40625 116.625 -123.40625 C 118.007812 -123.40625 119.453125 -123.4375 120.953125 -123.5 C 122.460938 -123.5625 123.9375 -123.59375 125.375 -123.59375 C 126.820312 -123.59375 128.328125 -123.625 129.890625 -123.6875 C 131.460938 -123.75 133.066406 -123.84375 134.703125 -123.96875 L 134.890625 -123.96875 C 137.648438 -123.96875 139.78125 -122.90625 141.28125 -120.78125 C 142.40625 -119.144531 142.96875 -117.257812 142.96875 -115.125 L 142.96875 -114.75 C 142.71875 -111.238281 141.46875 -108.859375 139.21875 -107.609375 C 138.332031 -107.109375 137.484375 -106.796875 136.671875 -106.671875 C 135.859375 -106.546875 134.820312 -106.484375 133.5625 -106.484375 C 132.5625 -106.484375 131.6875 -106.421875 130.9375 -106.296875 C 130.1875 -106.171875 129.585938 -106.039062 129.140625 -105.90625 C 128.703125 -105.78125 128.359375 -105.59375 128.109375 -105.34375 C 127.734375 -105.09375 127.453125 -104.84375 127.265625 -104.59375 C 127.078125 -104.34375 126.921875 -104.125 126.796875 -103.9375 C 126.671875 -103.75 126.609375 -103.53125 126.609375 -103.28125 C 126.234375 -101.644531 125.984375 -99.453125 125.859375 -96.703125 L 125.859375 -22.015625 C 125.859375 -21.515625 125.890625 -20.976562 125.953125 -20.40625 C 126.015625 -19.84375 126.046875 -19.34375 126.046875 -18.90625 C 126.046875 -18.46875 126.078125 -18.03125 126.140625 -17.59375 C 126.203125 -17.15625 126.265625 -16.773438 126.328125 -16.453125 C 126.390625 -16.140625 126.484375 -15.796875 126.609375 -15.421875 C 126.734375 -14.671875 127.234375 -13.984375 128.109375 -13.359375 C 129.117188 -12.609375 130.9375 -12.234375 133.5625 -12.234375 L 134.703125 -12.234375 C 136.953125 -12.234375 138.769531 -11.664062 140.15625 -10.53125 C 141.78125 -9.28125 142.71875 -7.085938 142.96875 -3.953125 L 142.96875 -3.578125 C 142.96875 -1.441406 142.40625 0.4375 141.28125 2.0625 C 140.78125 2.695312 140.179688 3.265625 139.484375 3.765625 C 138.796875 4.265625 138.046875 4.640625 137.234375 4.890625 C 136.421875 5.140625 135.640625 5.265625 134.890625 5.265625 L 134.703125 5.265625 C 126.671875 4.890625 119.207031 4.703125 112.3125 4.703125 C 105.039062 4.703125 97.328125 4.890625 89.171875 5.265625 L 88.984375 5.265625 C 86.472656 5.265625 84.40625 4.257812 82.78125 2.25 C 81.519531 0.625 80.890625 -1.316406 80.890625 -3.578125 L 80.890625 -3.953125 C 81.140625 -7.460938 82.394531 -9.84375 84.65625 -11.09375 C 85.53125 -11.601562 86.40625 -11.921875 87.28125 -12.046875 C 88.164062 -12.171875 89.234375 -12.234375 90.484375 -12.234375 C 93.117188 -12.234375 94.875 -12.546875 95.75 -13.171875 C 96.632812 -13.796875 97.140625 -14.546875 97.265625 -15.421875 C 97.640625 -17.054688 97.890625 -19.253906 98.015625 -22.015625 L 98.015625 -50.609375 L 48.34375 -50.609375 L 48.34375 -22.015625 C 48.46875 -20.503906 48.5625 -19.21875 48.625 -18.15625 C 48.6875 -17.09375 48.84375 -16.179688 49.09375 -15.421875 C 49.21875 -15.046875 49.375 -14.671875 49.5625 -14.296875 C 49.757812 -13.921875 50.109375 -13.546875 50.609375 -13.171875 C 51.484375 -12.546875 53.238281 -12.234375 55.875 -12.234375 L 57 -12.234375 C 59.382812 -12.234375 61.265625 -11.601562 62.640625 -10.34375 C 64.148438 -9.09375 65.03125 -6.960938 65.28125 -3.953125 L 65.28125 -3.578125 C 65.28125 -1.441406 64.71875 0.4375 63.59375 2.0625 C 63.082031 2.695312 62.484375 3.265625 61.796875 3.765625 C 61.109375 4.265625 60.351562 4.640625 59.53125 4.890625 C 58.71875 5.140625 57.9375 5.265625 57.1875 5.265625 L 57 5.265625 C 48.976562 4.890625 41.265625 4.703125 33.859375 4.703125 C 27.210938 4.703125 19.8125 4.890625 11.65625 5.265625 L 11.46875 5.265625 C 8.71875 5.265625 6.585938 4.195312 5.078125 2.0625 Z M 5.078125 2.0625"/></g></defs><g clip-path="url(#a)"><path fill="#007BFF" d="M 63.878906 75.453125 L 63.878906 140.851562 C 63.871094 141.78125 63.824219 142.707031 63.726562 143.632812 C 63.632812 144.558594 63.492188 145.476562 63.308594 146.386719 C 63.125 147.300781 62.894531 148.199219 62.621094 149.089844 C 62.347656 149.976562 62.03125 150.851562 61.671875 151.707031 C 61.316406 152.566406 60.914062 153.40625 60.476562 154.222656 C 60.035156 155.042969 59.554688 155.835938 59.035156 156.609375 C 58.519531 157.382812 57.964844 158.125 57.371094 158.84375 C 56.78125 159.5625 56.15625 160.25 55.5 160.90625 C 54.839844 161.5625 54.152344 162.183594 53.429688 162.773438 C 52.710938 163.363281 51.964844 163.914062 51.191406 164.429688 C 50.417969 164.945312 49.621094 165.425781 48.800781 165.863281 C 47.980469 166.300781 47.140625 166.695312 46.28125 167.054688 C 45.425781 167.410156 44.550781 167.722656 43.660156 167.992188 C 42.769531 168.261719 41.871094 168.488281 40.957031 168.671875 C 40.046875 168.855469 39.128906 168.992188 38.203125 169.082031 C 37.277344 169.175781 36.351562 169.222656 35.421875 169.222656 L 4.765625 169.222656 L 4.765625 206.117188 L 35.421875 206.117188 C 36.355469 206.117188 37.285156 206.160156 38.214844 206.253906 C 39.144531 206.34375 40.066406 206.480469 40.980469 206.664062 C 41.898438 206.847656 42.800781 207.074219 43.695312 207.34375 C 44.589844 207.613281 45.46875 207.929688 46.328125 208.285156 C 47.191406 208.644531 48.035156 209.042969 48.859375 209.480469 C 49.683594 209.921875 50.480469 210.402344 51.257812 210.921875 C 52.035156 211.4375 52.785156 211.996094 53.503906 212.585938 C 54.226562 213.179688 54.917969 213.804688 55.578125 214.464844 C 56.238281 215.125 56.863281 215.816406 57.457031 216.539062 C 58.050781 217.261719 58.605469 218.007812 59.125 218.785156 C 59.640625 219.5625 60.121094 220.363281 60.5625 221.183594 C 61 222.007812 61.398438 222.851562 61.757812 223.714844 C 62.113281 224.578125 62.429688 225.453125 62.699219 226.347656 C 62.972656 227.242188 63.199219 228.144531 63.378906 229.0625 C 63.5625 229.976562 63.699219 230.898438 63.789062 231.828125 C 63.882812 232.757812 63.925781 233.691406 63.925781 234.625 L 63.925781 300.023438 C 63.929688 301.089844 63.957031 302.15625 64.011719 303.222656 C 64.066406 304.289062 64.148438 305.351562 64.253906 306.414062 C 64.363281 307.476562 64.496094 308.535156 64.652344 309.589844 C 64.8125 310.644531 64.996094 311.695312 65.207031 312.742188 C 65.417969 313.789062 65.652344 314.828125 65.914062 315.863281 C 66.175781 316.898438 66.460938 317.925781 66.773438 318.949219 C 67.082031 319.96875 67.417969 320.980469 67.78125 321.988281 C 68.140625 322.992188 68.527344 323.984375 68.9375 324.972656 C 69.347656 325.957031 69.78125 326.933594 70.238281 327.894531 C 70.695312 328.859375 71.175781 329.8125 71.679688 330.753906 C 72.183594 331.695312 72.710938 332.621094 73.257812 333.539062 C 73.808594 334.453125 74.378906 335.355469 74.972656 336.242188 C 75.566406 337.128906 76.183594 338 76.820312 338.855469 C 77.453125 339.714844 78.113281 340.554688 78.789062 341.378906 C 79.464844 342.203125 80.164062 343.011719 80.878906 343.804688 C 81.597656 344.59375 82.332031 345.367188 83.089844 346.121094 C 83.84375 346.875 84.617188 347.609375 85.40625 348.328125 C 86.199219 349.042969 87.003906 349.742188 87.832031 350.417969 C 88.65625 351.097656 89.496094 351.753906 90.355469 352.390625 C 91.210938 353.023438 92.082031 353.640625 92.96875 354.234375 C 93.859375 354.828125 94.757812 355.398438 95.675781 355.945312 C 96.589844 356.496094 97.515625 357.023438 98.457031 357.527344 C 99.398438 358.03125 100.351562 358.511719 101.316406 358.96875 C 102.28125 359.425781 103.257812 359.859375 104.242188 360.265625 C 105.226562 360.675781 106.222656 361.0625 107.226562 361.421875 C 108.230469 361.78125 109.246094 362.117188 110.265625 362.429688 C 111.285156 362.742188 112.316406 363.027344 113.347656 363.289062 C 114.382812 363.546875 115.425781 363.785156 116.472656 363.992188 C 117.519531 364.203125 118.570312 364.386719 119.625 364.546875 C 120.679688 364.703125 121.738281 364.835938 122.800781 364.941406 C 123.863281 365.050781 124.925781 365.128906 125.992188 365.183594 C 127.058594 365.238281 128.125 365.265625 129.191406 365.269531 L 147.640625 365.269531 L 147.640625 328.359375 L 129.191406 328.359375 C 128.257812 328.359375 127.328125 328.316406 126.398438 328.222656 C 125.46875 328.132812 124.546875 327.996094 123.632812 327.8125 C 122.714844 327.632812 121.8125 327.40625 120.917969 327.132812 C 120.023438 326.863281 119.144531 326.546875 118.285156 326.191406 C 117.421875 325.832031 116.578125 325.433594 115.753906 324.996094 C 114.929688 324.554688 114.132812 324.074219 113.355469 323.558594 C 112.578125 323.039062 111.828125 322.484375 111.109375 321.890625 C 110.386719 321.296875 109.695312 320.671875 109.035156 320.011719 C 108.375 319.351562 107.75 318.660156 107.15625 317.9375 C 106.5625 317.21875 106.007812 316.46875 105.488281 315.691406 C 104.972656 314.914062 104.492188 314.117188 104.050781 313.292969 C 103.613281 312.46875 103.214844 311.625 102.855469 310.761719 C 102.5 309.902344 102.183594 309.023438 101.914062 308.128906 C 101.640625 307.234375 101.414062 306.332031 101.234375 305.414062 C 101.050781 304.5 100.914062 303.578125 100.824219 302.648438 C 100.730469 301.71875 100.6875 300.789062 100.6875 299.855469 L 100.6875 234.457031 C 100.65625 228.382812 99.773438 222.441406 98.03125 216.625 C 96.292969 210.804688 93.765625 205.351562 90.457031 200.265625 C 86.183594 204.109375 81.578125 207.503906 76.640625 210.441406 C 75.339844 211.199219 73.933594 211.582031 72.429688 211.582031 C 71.507812 211.585938 70.605469 211.4375 69.730469 211.140625 C 68.855469 210.847656 68.050781 210.417969 67.320312 209.859375 C 66.585938 209.296875 65.960938 208.632812 65.449219 207.863281 C 64.933594 207.097656 64.554688 206.269531 64.316406 205.375 C 64.078125 204.484375 63.988281 203.578125 64.046875 202.65625 C 64.105469 201.734375 64.3125 200.847656 64.664062 199.992188 C 65.019531 199.140625 65.5 198.367188 66.109375 197.671875 C 66.714844 196.976562 67.421875 196.398438 68.21875 195.9375 C 73.148438 193.125 77.636719 189.730469 81.679688 185.75 C 85.722656 181.773438 89.191406 177.34375 92.082031 172.460938 C 94.898438 167.636719 97.039062 162.53125 98.496094 157.144531 C 99.957031 151.757812 100.6875 146.277344 100.6875 140.699219 L 100.6875 75.300781 C 100.6875 74.367188 100.730469 73.4375 100.824219 72.507812 C 100.914062 71.578125 101.050781 70.65625 101.234375 69.742188 C 101.414062 68.824219 101.640625 67.921875 101.914062 67.027344 C 102.183594 66.132812 102.5 65.253906 102.855469 64.394531 C 103.214844 63.53125 103.613281 62.6875 104.050781 61.863281 C 104.492188 61.039062 104.972656 60.242188 105.488281 59.464844 C 106.007812 58.6875 106.5625 57.9375 107.15625 57.21875 C 107.75 56.496094 108.375 55.804688 109.035156 55.144531 C 109.695312 54.484375 110.386719 53.859375 111.109375 53.265625 C 111.828125 52.671875 112.578125 52.117188 113.355469 51.597656 C 114.132812 51.082031 114.929688 50.601562 115.753906 50.160156 C 116.578125 49.722656 117.421875 49.324219 118.285156 48.964844 C 119.144531 48.609375 120.023438 48.292969 120.917969 48.023438 C 121.8125 47.75 122.714844 47.523438 123.632812 47.34375 C 124.546875 47.160156 125.46875 47.023438 126.398438 46.933594 C 127.328125 46.839844 128.257812 46.796875 129.191406 46.796875 L 147.640625 46.796875 L 147.640625 10.207031 L 129.191406 10.207031 C 128.125 10.207031 127.058594 10.234375 125.992188 10.289062 C 124.925781 10.339844 123.859375 10.421875 122.796875 10.527344 C 121.734375 10.632812 120.675781 10.765625 119.621094 10.921875 C 118.5625 11.078125 117.511719 11.261719 116.464844 11.472656 C 115.417969 11.683594 114.375 11.917969 113.339844 12.175781 C 112.304688 12.4375 111.277344 12.722656 110.253906 13.03125 C 109.234375 13.34375 108.21875 13.679688 107.214844 14.039062 C 106.207031 14.398438 105.210938 14.785156 104.226562 15.191406 C 103.238281 15.601562 102.265625 16.035156 101.300781 16.492188 C 100.332031 16.949219 99.378906 17.429688 98.4375 17.933594 C 97.496094 18.4375 96.566406 18.960938 95.652344 19.511719 C 94.734375 20.058594 93.835938 20.632812 92.945312 21.226562 C 92.058594 21.816406 91.183594 22.433594 90.328125 23.070312 C 89.46875 23.703125 88.628906 24.359375 87.800781 25.039062 C 86.976562 25.714844 86.167969 26.414062 85.375 27.128906 C 84.585938 27.847656 83.8125 28.582031 83.054688 29.335938 C 82.300781 30.089844 81.5625 30.863281 80.847656 31.65625 C 80.128906 32.445312 79.429688 33.253906 78.753906 34.078125 C 78.074219 34.902344 77.417969 35.746094 76.78125 36.601562 C 76.144531 37.457031 75.527344 38.332031 74.933594 39.21875 C 74.339844 40.105469 73.769531 41.007812 73.21875 41.921875 C 72.667969 42.835938 72.140625 43.765625 71.636719 44.707031 C 71.132812 45.648438 70.652344 46.601562 70.191406 47.566406 C 69.734375 48.53125 69.300781 49.503906 68.890625 50.492188 C 68.480469 51.476562 68.09375 52.472656 67.734375 53.476562 C 67.371094 54.484375 67.035156 55.496094 66.722656 56.515625 C 66.414062 57.539062 66.125 58.566406 65.863281 59.601562 C 65.605469 60.636719 65.367188 61.679688 65.15625 62.726562 C 64.949219 63.773438 64.761719 64.824219 64.605469 65.878906 C 64.445312 66.9375 64.3125 67.996094 64.207031 69.058594 C 64.097656 70.121094 64.019531 71.183594 63.964844 72.25 C 63.910156 73.316406 63.878906 74.386719 63.878906 75.453125 Z M 63.878906 75.453125"/></g><g clip-path="url(#b)"><path fill="#007BFF" d="M 341.625 169.222656 C 340.691406 169.222656 339.761719 169.179688 338.832031 169.085938 C 337.902344 168.996094 336.980469 168.859375 336.0625 168.675781 C 335.148438 168.496094 334.242188 168.269531 333.347656 167.996094 C 332.457031 167.726562 331.578125 167.410156 330.714844 167.054688 C 329.851562 166.699219 329.011719 166.296875 328.1875 165.859375 C 327.363281 165.417969 326.5625 164.9375 325.785156 164.421875 C 325.011719 163.902344 324.261719 163.347656 323.539062 162.753906 C 322.816406 162.160156 322.128906 161.535156 321.46875 160.875 C 320.808594 160.214844 320.179688 159.523438 319.589844 158.800781 C 318.996094 158.082031 318.441406 157.332031 317.921875 156.554688 C 317.402344 155.777344 316.921875 154.980469 316.484375 154.15625 C 316.042969 153.332031 315.644531 152.488281 315.289062 151.625 C 314.929688 150.765625 314.617188 149.886719 314.34375 148.992188 C 314.074219 148.097656 313.847656 147.195312 313.664062 146.277344 C 313.484375 145.363281 313.347656 144.441406 313.253906 143.511719 C 313.164062 142.582031 313.117188 141.652344 313.117188 140.71875 L 313.117188 75.320312 C 313.113281 74.25 313.085938 73.183594 313.03125 72.121094 C 312.976562 71.054688 312.894531 69.988281 312.789062 68.929688 C 312.683594 67.867188 312.550781 66.808594 312.390625 65.753906 C 312.234375 64.695312 312.046875 63.644531 311.839844 62.601562 C 311.628906 61.554688 311.394531 60.511719 311.132812 59.480469 C 310.871094 58.445312 310.585938 57.417969 310.273438 56.394531 C 309.960938 55.375 309.625 54.363281 309.265625 53.359375 C 308.90625 52.351562 308.519531 51.359375 308.109375 50.375 C 307.699219 49.386719 307.265625 48.414062 306.808594 47.449219 C 306.351562 46.484375 305.871094 45.53125 305.367188 44.589844 C 304.863281 43.652344 304.339844 42.722656 303.789062 41.808594 C 303.238281 40.894531 302.667969 39.992188 302.074219 39.105469 C 301.480469 38.21875 300.867188 37.347656 300.230469 36.488281 C 299.59375 35.632812 298.9375 34.792969 298.261719 33.964844 C 297.582031 33.140625 296.886719 32.335938 296.167969 31.542969 C 295.453125 30.753906 294.71875 29.980469 293.960938 29.226562 C 293.207031 28.472656 292.433594 27.734375 291.644531 27.019531 C 290.855469 26.300781 290.046875 25.605469 289.222656 24.929688 C 288.398438 24.25 287.554688 23.59375 286.699219 22.957031 C 285.84375 22.320312 284.96875 21.707031 284.082031 21.113281 C 283.195312 20.519531 282.296875 19.949219 281.378906 19.398438 C 280.464844 18.851562 279.539062 18.324219 278.597656 17.820312 C 277.65625 17.316406 276.703125 16.835938 275.738281 16.378906 C 274.773438 15.921875 273.800781 15.488281 272.816406 15.078125 C 271.828125 14.667969 270.835938 14.285156 269.832031 13.921875 C 268.824219 13.5625 267.8125 13.226562 266.792969 12.914062 C 265.773438 12.601562 264.742188 12.316406 263.710938 12.054688 C 262.675781 11.796875 261.632812 11.558594 260.585938 11.351562 C 259.542969 11.140625 258.492188 10.957031 257.433594 10.796875 C 256.378906 10.636719 255.320312 10.503906 254.257812 10.398438 C 253.199219 10.292969 252.132812 10.210938 251.066406 10.15625 C 250.003906 10.101562 248.9375 10.074219 247.867188 10.070312 L 229.421875 10.070312 L 229.421875 46.980469 L 247.867188 46.980469 C 248.800781 46.980469 249.734375 47.023438 250.664062 47.117188 C 251.59375 47.207031 252.515625 47.34375 253.429688 47.527344 C 254.347656 47.710938 255.25 47.9375 256.144531 48.207031 C 257.039062 48.476562 257.914062 48.792969 258.777344 49.148438 C 259.640625 49.507812 260.484375 49.90625 261.308594 50.34375 C 262.128906 50.785156 262.929688 51.265625 263.707031 51.785156 C 264.484375 52.300781 265.230469 52.859375 265.953125 53.449219 C 266.675781 54.042969 267.367188 54.667969 268.027344 55.328125 C 268.6875 55.988281 269.3125 56.679688 269.90625 57.402344 C 270.496094 58.125 271.054688 58.871094 271.570312 59.648438 C 272.089844 60.425781 272.570312 61.226562 273.011719 62.046875 C 273.449219 62.871094 273.847656 63.714844 274.207031 64.578125 C 274.5625 65.441406 274.878906 66.316406 275.148438 67.210938 C 275.417969 68.105469 275.644531 69.007812 275.828125 69.925781 C 276.011719 70.839844 276.148438 71.761719 276.238281 72.691406 C 276.332031 73.621094 276.375 74.554688 276.375 75.488281 L 276.375 140.886719 C 276.40625 146.957031 277.292969 152.898438 279.039062 158.714844 C 280.785156 164.527344 283.316406 169.976562 286.640625 175.058594 C 290.902344 171.21875 295.503906 167.832031 300.441406 164.898438 C 300.914062 164.648438 301.410156 164.449219 301.921875 164.296875 C 302.433594 164.140625 302.957031 164.039062 303.492188 163.984375 C 304.023438 163.929688 304.558594 163.929688 305.089844 163.976562 C 305.625 164.027344 306.148438 164.125 306.664062 164.273438 C 307.175781 164.425781 307.671875 164.621094 308.148438 164.867188 C 308.625 165.109375 309.074219 165.398438 309.496094 165.726562 C 309.917969 166.058594 310.304688 166.425781 310.65625 166.828125 C 311.007812 167.234375 311.316406 167.667969 311.585938 168.132812 C 311.851562 168.59375 312.074219 169.082031 312.25 169.585938 C 312.425781 170.09375 312.550781 170.609375 312.625 171.140625 C 312.703125 171.671875 312.726562 172.203125 312.699219 172.738281 C 312.675781 173.273438 312.597656 173.800781 312.46875 174.320312 C 312.34375 174.84375 312.167969 175.347656 311.941406 175.832031 C 311.71875 176.320312 311.449219 176.78125 311.136719 177.214844 C 310.828125 177.652344 310.476562 178.050781 310.085938 178.421875 C 309.695312 178.789062 309.277344 179.117188 308.824219 179.402344 C 303.890625 182.210938 299.394531 185.605469 295.34375 189.582031 C 291.292969 193.5625 287.824219 197.996094 284.929688 202.878906 C 282.121094 207.695312 279.988281 212.792969 278.53125 218.171875 C 277.074219 223.554688 276.347656 229.03125 276.34375 234.605469 L 276.34375 300.003906 C 276.34375 300.9375 276.296875 301.871094 276.207031 302.800781 C 276.113281 303.726562 275.976562 304.652344 275.792969 305.566406 C 275.613281 306.480469 275.386719 307.386719 275.113281 308.28125 C 274.84375 309.171875 274.53125 310.050781 274.171875 310.914062 C 273.816406 311.777344 273.417969 312.621094 272.976562 313.441406 C 272.535156 314.265625 272.058594 315.066406 271.539062 315.84375 C 271.019531 316.617188 270.464844 317.367188 269.871094 318.089844 C 269.28125 318.8125 268.652344 319.503906 267.992188 320.164062 C 267.332031 320.824219 266.640625 321.449219 265.921875 322.042969 C 265.199219 322.632812 264.449219 323.1875 263.671875 323.707031 C 262.898438 324.226562 262.097656 324.707031 261.273438 325.144531 C 260.449219 325.585938 259.605469 325.984375 258.746094 326.34375 C 257.882812 326.699219 257.003906 327.011719 256.109375 327.285156 C 255.21875 327.554688 254.3125 327.78125 253.398438 327.964844 C 252.480469 328.144531 251.558594 328.285156 250.628906 328.375 C 249.699219 328.464844 248.769531 328.511719 247.835938 328.511719 L 229.390625 328.511719 L 229.390625 365.269531 L 247.835938 365.269531 C 248.902344 365.265625 249.96875 365.238281 251.035156 365.183594 C 252.101562 365.128906 253.164062 365.046875 254.226562 364.941406 C 255.289062 364.835938 256.347656 364.703125 257.402344 364.542969 C 258.457031 364.386719 259.507812 364.199219 260.554688 363.992188 C 261.601562 363.78125 262.640625 363.546875 263.675781 363.285156 C 264.710938 363.023438 265.738281 362.738281 266.757812 362.425781 C 267.78125 362.113281 268.792969 361.777344 269.796875 361.417969 C 270.800781 361.058594 271.796875 360.671875 272.78125 360.261719 C 273.765625 359.851562 274.742188 359.417969 275.707031 358.960938 C 276.671875 358.503906 277.621094 358.023438 278.5625 357.519531 C 279.503906 357.015625 280.433594 356.492188 281.347656 355.941406 C 282.261719 355.390625 283.164062 354.820312 284.050781 354.226562 C 284.9375 353.632812 285.808594 353.019531 286.664062 352.382812 C 287.523438 351.746094 288.363281 351.089844 289.1875 350.414062 C 290.011719 349.734375 290.820312 349.039062 291.609375 348.320312 C 292.402344 347.605469 293.175781 346.871094 293.929688 346.113281 C 294.683594 345.359375 295.417969 344.585938 296.136719 343.796875 C 296.851562 343.007812 297.550781 342.199219 298.226562 341.375 C 298.902344 340.550781 299.5625 339.707031 300.195312 338.851562 C 300.832031 337.996094 301.449219 337.121094 302.042969 336.234375 C 302.632812 335.347656 303.207031 334.449219 303.753906 333.53125 C 304.304688 332.617188 304.832031 331.691406 305.335938 330.75 C 305.839844 329.808594 306.320312 328.855469 306.777344 327.890625 C 307.234375 326.929688 307.667969 325.953125 308.078125 324.96875 C 308.488281 323.980469 308.871094 322.988281 309.230469 321.984375 C 309.59375 320.980469 309.929688 319.964844 310.242188 318.945312 C 310.550781 317.925781 310.835938 316.898438 311.097656 315.863281 C 311.359375 314.828125 311.59375 313.785156 311.804688 312.742188 C 312.015625 311.695312 312.199219 310.644531 312.359375 309.589844 C 312.515625 308.53125 312.648438 307.472656 312.757812 306.414062 C 312.863281 305.351562 312.945312 304.285156 313 303.222656 C 313.054688 302.15625 313.082031 301.089844 313.082031 300.023438 L 313.082031 234.625 C 313.085938 233.691406 313.136719 232.761719 313.230469 231.835938 C 313.324219 230.90625 313.460938 229.988281 313.644531 229.074219 C 313.828125 228.160156 314.058594 227.257812 314.332031 226.367188 C 314.605469 225.476562 314.917969 224.601562 315.277344 223.738281 C 315.636719 222.878906 316.035156 222.039062 316.476562 221.21875 C 316.917969 220.398438 317.398438 219.601562 317.917969 218.824219 C 318.4375 218.050781 318.992188 217.304688 319.585938 216.585938 C 320.175781 215.867188 320.804688 215.179688 321.464844 214.519531 C 322.121094 213.863281 322.8125 213.238281 323.535156 212.648438 C 324.253906 212.058594 325.003906 211.503906 325.78125 210.988281 C 326.554688 210.46875 327.355469 209.992188 328.175781 209.554688 C 329 209.113281 329.839844 208.71875 330.703125 208.363281 C 331.5625 208.007812 332.4375 207.691406 333.332031 207.421875 C 334.222656 207.152344 335.125 206.925781 336.039062 206.746094 C 336.953125 206.5625 337.875 206.429688 338.800781 206.335938 C 339.730469 206.246094 340.660156 206.199219 341.589844 206.199219 L 372.246094 206.199219 L 372.246094 169.222656 Z M 341.625 169.222656"/></g><g fill="#007BFF"><use x="83.742" y="237.8" xmlns:xlink="http://www.w3.org/1999/xlink" xlink:href="#c" xlink:type="simple" xlink:actuate="onLoad" xlink:show="embed"/></g><g fill="#007BFF"><use x="145.697" y="315.514" xmlns:xlink="http://www.w3.org/1999/xlink" xlink:href="#d" xlink:type="simple" xlink:actuate="onLoad" xlink:show="embed"/></g></svg>