<svg xmlns="http://www.w3.org/2000/svg" xmlns:xlink="http://www.w3.org/1999/xlink" width="375" viewBox="0 0 375 375" height="375" version="1.0"><defs><clipPath id="a"><path d="M 3 9.921875 L 148 9.921875 L 148 365.421875 L 3 365.421875 Z M 3 9.921875"/></clipPath><clipPath id="b"><path d="M 229 9.921875 L 374 9.921875 L 374 365.421875 L 229 365.421875 Z M 229 9.921875"/></clipPath><g id="c"><path d="M 5.46875 2.234375 C 4.789062 1.285156 4.316406 0.304688 4.046875 -0.703125 C 3.773438 -1.722656 3.640625 -2.769531 3.640625 -3.84375 L 3.640625 -4.25 C 3.640625 -4.25 3.640625 -4.382812 3.640625 -4.65625 C 3.910156 -8.164062 5.125 -10.523438 7.28125 -11.734375 C 8.769531 -12.679688 10.929688 -13.15625 13.765625 -13.15625 C 16.597656 -13.15625 18.488281 -13.492188 19.4375 -14.171875 C 20.375 -14.847656 20.910156 -15.65625 21.046875 -16.59375 C 21.453125 -18.351562 21.722656 -20.71875 21.859375 -23.6875 L 21.859375 -104.046875 C 21.722656 -107.015625 21.453125 -109.375 21.046875 -111.125 C 21.046875 -111.394531 20.976562 -111.664062 20.84375 -111.9375 C 20.707031 -112.207031 20.539062 -112.476562 20.34375 -112.75 C 20.144531 -113.019531 19.84375 -113.222656 19.4375 -113.359375 C 18.488281 -114.171875 16.597656 -114.578125 13.765625 -114.578125 L 12.546875 -114.578125 C 12.003906 -114.578125 11.53125 -114.609375 11.125 -114.671875 C 10.726562 -114.734375 10.222656 -114.796875 9.609375 -114.859375 C 9.003906 -114.929688 8.429688 -115.101562 7.890625 -115.375 C 7.347656 -115.644531 6.878906 -116.050781 6.484375 -116.59375 C 6.210938 -116.726562 5.941406 -116.929688 5.671875 -117.203125 C 5.398438 -117.472656 5.195312 -117.707031 5.0625 -117.90625 C 4.925781 -118.113281 4.789062 -118.351562 4.65625 -118.625 C 4.519531 -118.894531 4.414062 -119.128906 4.34375 -119.328125 C 4.28125 -119.523438 4.210938 -119.789062 4.140625 -120.125 C 4.078125 -120.46875 4.007812 -120.707031 3.9375 -120.84375 C 3.875 -120.976562 3.84375 -121.210938 3.84375 -121.546875 C 3.84375 -121.890625 3.804688 -122.128906 3.734375 -122.265625 C 3.671875 -122.398438 3.640625 -122.601562 3.640625 -122.875 C 3.640625 -123.144531 3.640625 -123.347656 3.640625 -123.484375 L 3.640625 -123.875 C 3.773438 -126.175781 4.382812 -128.203125 5.46875 -129.953125 C 6.144531 -131.035156 7.085938 -131.878906 8.296875 -132.484375 C 9.515625 -133.085938 10.796875 -133.390625 12.140625 -133.390625 L 12.34375 -133.390625 C 21.25 -132.984375 29.210938 -132.78125 36.234375 -132.78125 L 67.8125 -132.78125 C 81.570312 -132.78125 94.125 -130.015625 105.46875 -124.484375 C 116.800781 -118.816406 125.804688 -110.71875 132.484375 -100.1875 C 139.160156 -89.664062 142.5 -77.320312 142.5 -63.15625 C 142.5 -48.3125 138.722656 -35.691406 131.171875 -25.296875 C 127.390625 -20.171875 123.035156 -15.6875 118.109375 -11.84375 C 113.179688 -8 107.75 -4.796875 101.8125 -2.234375 C 90.070312 2.628906 77.523438 5.0625 64.171875 5.0625 L 36.234375 5.0625 C 35.015625 5.0625 33.796875 5.0625 32.578125 5.0625 C 31.367188 5.0625 30.125 5.0625 28.84375 5.0625 C 27.5625 5.0625 26.28125 5.09375 25 5.15625 C 23.71875 5.226562 22.367188 5.296875 20.953125 5.359375 C 19.535156 5.429688 18.117188 5.46875 16.703125 5.46875 C 15.285156 5.46875 13.832031 5.535156 12.34375 5.671875 L 12.140625 5.671875 C 9.304688 5.671875 7.082031 4.523438 5.46875 2.234375 Z M 97.96875 -25.296875 C 104.582031 -34.066406 107.890625 -46.6875 107.890625 -63.15625 C 107.890625 -73.539062 106.066406 -82.71875 102.421875 -90.6875 C 100.535156 -94.601562 98.3125 -98.078125 95.75 -101.109375 C 93.1875 -104.148438 90.21875 -106.75 86.84375 -108.90625 C 80.226562 -113.21875 72.195312 -115.375 62.75 -115.375 L 52.015625 -115.171875 L 52.015625 -21.25 C 52.015625 -17.875 52.828125 -15.71875 54.453125 -14.78125 C 56.742188 -13.289062 60.992188 -12.546875 67.203125 -12.546875 C 81.367188 -12.546875 91.625 -16.796875 97.96875 -25.296875 Z M 97.96875 -25.296875"/></g><g id="d"><path d="M 5.03125 2.046875 C 4.414062 1.179688 3.984375 0.285156 3.734375 -0.640625 C 3.484375 -1.578125 3.359375 -2.546875 3.359375 -3.546875 L 3.359375 -3.921875 C 3.359375 -3.921875 3.359375 -4.046875 3.359375 -4.296875 C 3.609375 -7.523438 4.726562 -9.703125 6.71875 -10.828125 C 8.082031 -11.691406 10.070312 -12.125 12.6875 -12.125 C 15.300781 -12.125 17.039062 -12.4375 17.90625 -13.0625 C 18.78125 -13.6875 19.28125 -14.429688 19.40625 -15.296875 C 19.78125 -16.910156 20.03125 -19.085938 20.15625 -21.828125 L 20.15625 -95.890625 C 20.03125 -98.628906 19.78125 -100.804688 19.40625 -102.421875 C 19.40625 -102.671875 19.34375 -102.921875 19.21875 -103.171875 C 19.09375 -103.421875 18.9375 -103.664062 18.75 -103.90625 C 18.5625 -104.15625 18.28125 -104.34375 17.90625 -104.46875 C 17.039062 -105.21875 15.300781 -105.59375 12.6875 -105.59375 L 11.5625 -105.59375 C 11.070312 -105.59375 10.640625 -105.625 10.265625 -105.6875 C 9.890625 -105.75 9.421875 -105.8125 8.859375 -105.875 C 8.296875 -105.9375 7.765625 -106.09375 7.265625 -106.34375 C 6.773438 -106.59375 6.34375 -106.960938 5.96875 -107.453125 C 5.71875 -107.578125 5.46875 -107.765625 5.21875 -108.015625 C 4.96875 -108.265625 4.78125 -108.484375 4.65625 -108.671875 C 4.539062 -108.859375 4.421875 -109.078125 4.296875 -109.328125 C 4.171875 -109.578125 4.078125 -109.796875 4.015625 -109.984375 C 3.953125 -110.171875 3.890625 -110.414062 3.828125 -110.71875 C 3.765625 -111.03125 3.703125 -111.25 3.640625 -111.375 C 3.578125 -111.5 3.546875 -111.71875 3.546875 -112.03125 C 3.546875 -112.34375 3.515625 -112.5625 3.453125 -112.6875 C 3.390625 -112.8125 3.359375 -112.992188 3.359375 -113.234375 C 3.359375 -113.484375 3.359375 -113.671875 3.359375 -113.796875 L 3.359375 -114.171875 C 3.484375 -116.285156 4.039062 -118.148438 5.03125 -119.765625 C 5.53125 -120.390625 6.117188 -120.953125 6.796875 -121.453125 C 7.484375 -121.953125 8.234375 -122.320312 9.046875 -122.5625 C 9.859375 -122.8125 10.632812 -122.9375 11.375 -122.9375 L 11.5625 -122.9375 C 15.539062 -122.695312 19.363281 -122.546875 23.03125 -122.484375 C 26.707031 -122.421875 30.160156 -122.390625 33.390625 -122.390625 C 40.734375 -122.390625 48.445312 -122.570312 56.53125 -122.9375 L 56.71875 -122.9375 C 57.457031 -122.9375 58.234375 -122.8125 59.046875 -122.5625 C 59.859375 -122.320312 60.601562 -121.953125 61.28125 -121.453125 C 61.96875 -120.953125 62.5625 -120.390625 63.0625 -119.765625 C 63.675781 -118.898438 64.109375 -118 64.359375 -117.0625 C 64.609375 -116.132812 64.734375 -115.171875 64.734375 -114.171875 L 64.734375 -113.796875 C 64.484375 -110.316406 63.363281 -108.019531 61.375 -106.90625 C 60.757812 -106.40625 60.046875 -106.0625 59.234375 -105.875 C 58.421875 -105.6875 57.796875 -105.59375 57.359375 -105.59375 C 56.929688 -105.59375 56.28125 -105.59375 55.40625 -105.59375 C 52.789062 -105.59375 51.050781 -105.21875 50.1875 -104.46875 C 49.3125 -103.976562 48.8125 -103.296875 48.6875 -102.421875 C 48.320312 -100.804688 48.078125 -98.628906 47.953125 -95.890625 L 47.953125 -67.53125 L 97.203125 -67.53125 L 97.203125 -95.890625 C 97.203125 -96.390625 97.171875 -96.914062 97.109375 -97.46875 C 97.046875 -98.03125 97.015625 -98.53125 97.015625 -98.96875 C 97.015625 -99.40625 96.984375 -99.84375 96.921875 -100.28125 C 96.859375 -100.71875 96.796875 -101.085938 96.734375 -101.390625 C 96.671875 -101.703125 96.578125 -102.046875 96.453125 -102.421875 C 96.328125 -102.796875 96.171875 -103.171875 95.984375 -103.546875 C 95.796875 -103.921875 95.453125 -104.226562 94.953125 -104.46875 C 94.085938 -105.21875 92.347656 -105.59375 89.734375 -105.59375 L 88.625 -105.59375 C 87.5 -105.59375 86.5 -105.6875 85.625 -105.875 C 84.757812 -106.0625 83.890625 -106.53125 83.015625 -107.28125 C 82.273438 -107.894531 81.6875 -108.664062 81.25 -109.59375 C 80.8125 -110.53125 80.5625 -111.21875 80.5 -111.65625 C 80.4375 -112.09375 80.34375 -112.804688 80.21875 -113.796875 L 80.21875 -114.171875 C 80.21875 -116.410156 80.84375 -118.335938 82.09375 -119.953125 C 83.707031 -121.941406 85.757812 -122.9375 88.25 -122.9375 L 88.4375 -122.9375 C 92.414062 -122.695312 96.332031 -122.546875 100.1875 -122.484375 C 104.039062 -122.421875 107.832031 -122.390625 111.5625 -122.390625 C 112.925781 -122.390625 114.289062 -122.390625 115.65625 -122.390625 C 117.03125 -122.390625 118.460938 -122.421875 119.953125 -122.484375 C 121.453125 -122.546875 122.914062 -122.578125 124.34375 -122.578125 C 125.769531 -122.578125 127.257812 -122.609375 128.8125 -122.671875 C 130.375 -122.734375 131.960938 -122.820312 133.578125 -122.9375 L 133.765625 -122.9375 C 136.503906 -122.9375 138.617188 -121.878906 140.109375 -119.765625 C 141.222656 -118.148438 141.78125 -116.285156 141.78125 -114.171875 L 141.78125 -113.796875 C 141.539062 -110.316406 140.300781 -107.957031 138.0625 -106.71875 C 137.1875 -106.21875 136.34375 -105.90625 135.53125 -105.78125 C 134.726562 -105.65625 133.703125 -105.59375 132.453125 -105.59375 C 131.460938 -105.59375 130.59375 -105.53125 129.84375 -105.40625 C 129.101562 -105.28125 128.515625 -105.15625 128.078125 -105.03125 C 127.640625 -104.90625 127.296875 -104.71875 127.046875 -104.46875 C 126.671875 -104.226562 126.390625 -103.984375 126.203125 -103.734375 C 126.023438 -103.484375 125.875 -103.265625 125.75 -103.078125 C 125.625 -102.890625 125.5625 -102.671875 125.5625 -102.421875 C 125.1875 -100.804688 124.9375 -98.628906 124.8125 -95.890625 L 124.8125 -21.828125 C 124.8125 -21.328125 124.84375 -20.796875 124.90625 -20.234375 C 124.96875 -19.679688 125 -19.1875 125 -18.75 C 125 -18.3125 125.03125 -17.875 125.09375 -17.4375 C 125.15625 -17.007812 125.21875 -16.640625 125.28125 -16.328125 C 125.34375 -16.015625 125.4375 -15.671875 125.5625 -15.296875 C 125.6875 -14.546875 126.179688 -13.863281 127.046875 -13.25 C 128.046875 -12.5 129.847656 -12.125 132.453125 -12.125 L 133.578125 -12.125 C 135.816406 -12.125 137.617188 -11.566406 138.984375 -10.453125 C 140.609375 -9.203125 141.539062 -7.023438 141.78125 -3.921875 L 141.78125 -3.546875 C 141.78125 -1.429688 141.222656 0.429688 140.109375 2.046875 C 139.609375 2.671875 139.015625 3.234375 138.328125 3.734375 C 137.648438 4.234375 136.90625 4.601562 136.09375 4.84375 C 135.289062 5.09375 134.515625 5.21875 133.765625 5.21875 L 133.578125 5.21875 C 125.617188 4.851562 118.21875 4.671875 111.375 4.671875 C 104.164062 4.671875 96.519531 4.851562 88.4375 5.21875 L 88.25 5.21875 C 85.757812 5.21875 83.707031 4.222656 82.09375 2.234375 C 80.84375 0.617188 80.21875 -1.304688 80.21875 -3.546875 L 80.21875 -3.921875 C 80.46875 -7.398438 81.710938 -9.757812 83.953125 -11 C 84.828125 -11.5 85.695312 -11.8125 86.5625 -11.9375 C 87.4375 -12.0625 88.492188 -12.125 89.734375 -12.125 C 92.347656 -12.125 94.085938 -12.4375 94.953125 -13.0625 C 95.828125 -13.6875 96.328125 -14.429688 96.453125 -15.296875 C 96.828125 -16.910156 97.078125 -19.085938 97.203125 -21.828125 L 97.203125 -50.1875 L 47.953125 -50.1875 L 47.953125 -21.828125 C 48.078125 -20.335938 48.164062 -19.0625 48.21875 -18 C 48.28125 -16.945312 48.4375 -16.046875 48.6875 -15.296875 C 48.8125 -14.921875 48.96875 -14.546875 49.15625 -14.171875 C 49.34375 -13.804688 49.6875 -13.4375 50.1875 -13.0625 C 51.050781 -12.4375 52.789062 -12.125 55.40625 -12.125 L 56.53125 -12.125 C 58.894531 -12.125 60.757812 -11.503906 62.125 -10.265625 C 63.613281 -9.015625 64.484375 -6.898438 64.734375 -3.921875 L 64.734375 -3.546875 C 64.734375 -1.429688 64.175781 0.429688 63.0625 2.046875 C 62.5625 2.671875 61.96875 3.234375 61.28125 3.734375 C 60.601562 4.234375 59.859375 4.601562 59.046875 4.84375 C 58.234375 5.09375 57.457031 5.21875 56.71875 5.21875 L 56.53125 5.21875 C 48.570312 4.851562 40.921875 4.671875 33.578125 4.671875 C 26.984375 4.671875 19.644531 4.851562 11.5625 5.21875 L 11.375 5.21875 C 8.644531 5.21875 6.53125 4.160156 5.03125 2.046875 Z M 5.03125 2.046875"/></g></defs><g clip-path="url(#a)"><path fill="#007BFF" d="M 62.945312 74.621094 L 62.945312 140.433594 C 62.941406 141.367188 62.890625 142.300781 62.792969 143.230469 C 62.699219 144.164062 62.558594 145.085938 62.371094 146.003906 C 62.1875 146.921875 61.957031 147.824219 61.679688 148.71875 C 61.40625 149.613281 61.089844 150.492188 60.726562 151.355469 C 60.367188 152.21875 59.964844 153.0625 59.523438 153.886719 C 59.078125 154.710938 58.597656 155.511719 58.074219 156.289062 C 57.554688 157.066406 56.996094 157.816406 56.402344 158.539062 C 55.804688 159.261719 55.175781 159.953125 54.515625 160.613281 C 53.851562 161.273438 53.160156 161.898438 52.433594 162.492188 C 51.710938 163.085938 50.960938 163.640625 50.183594 164.160156 C 49.40625 164.679688 48.601562 165.160156 47.777344 165.601562 C 46.953125 166.042969 46.109375 166.441406 45.242188 166.800781 C 44.378906 167.15625 43.5 167.472656 42.605469 167.746094 C 41.710938 168.015625 40.804688 168.246094 39.886719 168.429688 C 38.96875 168.609375 38.046875 168.75 37.113281 168.84375 C 36.183594 168.933594 35.25 168.984375 34.316406 168.984375 L 3.476562 168.984375 L 3.476562 206.109375 L 34.316406 206.109375 C 35.253906 206.109375 36.191406 206.15625 37.125 206.246094 C 38.0625 206.339844 38.988281 206.476562 39.910156 206.660156 C 40.832031 206.84375 41.742188 207.070312 42.640625 207.34375 C 43.539062 207.617188 44.421875 207.933594 45.289062 208.292969 C 46.160156 208.652344 47.007812 209.054688 47.835938 209.496094 C 48.664062 209.941406 49.46875 210.421875 50.25 210.945312 C 51.03125 211.464844 51.785156 212.023438 52.507812 212.621094 C 53.234375 213.21875 53.929688 213.847656 54.59375 214.511719 C 55.257812 215.175781 55.890625 215.871094 56.484375 216.597656 C 57.082031 217.324219 57.640625 218.078125 58.160156 218.859375 C 58.683594 219.640625 59.164062 220.445312 59.609375 221.273438 C 60.050781 222.101562 60.453125 222.949219 60.8125 223.820312 C 61.171875 224.6875 61.488281 225.570312 61.761719 226.46875 C 62.03125 227.367188 62.261719 228.277344 62.445312 229.199219 C 62.628906 230.121094 62.765625 231.050781 62.855469 231.984375 C 62.949219 232.921875 62.996094 233.855469 62.996094 234.796875 L 62.996094 300.609375 C 62.996094 301.683594 63.027344 302.757812 63.082031 303.828125 C 63.136719 304.902344 63.21875 305.972656 63.324219 307.042969 C 63.433594 308.109375 63.566406 309.175781 63.726562 310.238281 C 63.886719 311.300781 64.070312 312.359375 64.28125 313.410156 C 64.492188 314.464844 64.730469 315.511719 64.992188 316.550781 C 65.253906 317.59375 65.542969 318.628906 65.855469 319.65625 C 66.167969 320.683594 66.507812 321.703125 66.871094 322.714844 C 67.234375 323.722656 67.621094 324.726562 68.035156 325.71875 C 68.445312 326.707031 68.882812 327.691406 69.34375 328.660156 C 69.800781 329.632812 70.285156 330.589844 70.792969 331.535156 C 71.300781 332.484375 71.832031 333.417969 72.382812 334.335938 C 72.9375 335.257812 73.511719 336.164062 74.109375 337.058594 C 74.707031 337.949219 75.324219 338.828125 75.964844 339.691406 C 76.605469 340.554688 77.265625 341.398438 77.945312 342.230469 C 78.628906 343.058594 79.328125 343.871094 80.050781 344.667969 C 80.773438 345.464844 81.511719 346.242188 82.273438 347 C 83.03125 347.757812 83.808594 348.5 84.605469 349.222656 C 85.398438 349.941406 86.210938 350.644531 87.042969 351.324219 C 87.871094 352.007812 88.71875 352.667969 89.582031 353.308594 C 90.445312 353.949219 91.320312 354.566406 92.214844 355.164062 C 93.105469 355.761719 94.011719 356.335938 94.933594 356.886719 C 95.855469 357.441406 96.789062 357.972656 97.734375 358.476562 C 98.679688 358.984375 99.640625 359.46875 100.609375 359.929688 C 101.582031 360.386719 102.5625 360.824219 103.554688 361.234375 C 104.542969 361.648438 105.546875 362.035156 106.554688 362.398438 C 107.566406 362.761719 108.585938 363.101562 109.613281 363.414062 C 110.640625 363.726562 111.675781 364.011719 112.714844 364.277344 C 113.757812 364.539062 114.804688 364.773438 115.855469 364.984375 C 116.910156 365.199219 117.96875 365.382812 119.03125 365.542969 C 120.089844 365.703125 121.15625 365.835938 122.226562 365.941406 C 123.292969 366.046875 124.363281 366.128906 125.4375 366.183594 C 126.507812 366.238281 127.582031 366.269531 128.65625 366.269531 L 147.214844 366.269531 L 147.214844 329.128906 L 128.65625 329.128906 C 127.714844 329.128906 126.777344 329.082031 125.84375 328.988281 C 124.910156 328.898438 123.980469 328.761719 123.058594 328.578125 C 122.140625 328.394531 121.230469 328.164062 120.328125 327.894531 C 119.429688 327.621094 118.546875 327.304688 117.679688 326.945312 C 116.8125 326.585938 115.964844 326.183594 115.136719 325.742188 C 114.308594 325.296875 113.503906 324.816406 112.722656 324.292969 C 111.941406 323.769531 111.1875 323.210938 110.460938 322.617188 C 109.734375 322.019531 109.039062 321.390625 108.375 320.726562 C 107.710938 320.0625 107.082031 319.367188 106.484375 318.640625 C 105.890625 317.914062 105.332031 317.160156 104.808594 316.378906 C 104.285156 315.597656 103.804688 314.792969 103.363281 313.964844 C 102.917969 313.136719 102.519531 312.285156 102.160156 311.417969 C 101.800781 310.550781 101.484375 309.667969 101.210938 308.769531 C 100.9375 307.867188 100.710938 306.957031 100.527344 306.039062 C 100.34375 305.117188 100.207031 304.1875 100.113281 303.253906 C 100.019531 302.316406 99.976562 301.378906 99.976562 300.441406 L 99.976562 234.628906 C 99.945312 228.519531 99.058594 222.535156 97.304688 216.683594 C 95.554688 210.828125 93.015625 205.339844 89.683594 200.21875 C 85.386719 204.089844 80.753906 207.503906 75.78125 210.464844 C 74.472656 211.226562 73.0625 211.609375 71.546875 211.609375 C 70.621094 211.613281 69.714844 211.464844 68.835938 211.167969 C 67.953125 210.871094 67.144531 210.4375 66.40625 209.875 C 65.667969 209.308594 65.042969 208.640625 64.523438 207.871094 C 64.007812 207.097656 63.628906 206.261719 63.386719 205.363281 C 63.144531 204.46875 63.054688 203.554688 63.113281 202.628906 C 63.175781 201.699219 63.382812 200.808594 63.738281 199.949219 C 64.09375 199.089844 64.574219 198.3125 65.1875 197.613281 C 65.800781 196.914062 66.507812 196.332031 67.3125 195.867188 C 72.273438 193.035156 76.785156 189.621094 80.855469 185.617188 C 84.921875 181.613281 88.410156 177.152344 91.320312 172.242188 C 94.15625 167.386719 96.304688 162.25 97.773438 156.828125 C 99.242188 151.40625 99.976562 145.890625 99.976562 140.28125 L 99.976562 74.46875 C 99.976562 73.527344 100.019531 72.589844 100.113281 71.65625 C 100.207031 70.71875 100.34375 69.792969 100.527344 68.871094 C 100.710938 67.949219 100.9375 67.039062 101.210938 66.140625 C 101.484375 65.242188 101.800781 64.355469 102.160156 63.488281 C 102.519531 62.621094 102.917969 61.773438 103.363281 60.945312 C 103.804688 60.117188 104.285156 59.3125 104.808594 58.53125 C 105.332031 57.75 105.890625 56.996094 106.484375 56.269531 C 107.082031 55.542969 107.710938 54.847656 108.375 54.183594 C 109.039062 53.519531 109.734375 52.886719 110.460938 52.292969 C 111.1875 51.695312 111.941406 51.136719 112.722656 50.613281 C 113.503906 50.09375 114.308594 49.609375 115.136719 49.167969 C 115.964844 48.722656 116.8125 48.324219 117.679688 47.964844 C 118.546875 47.605469 119.429688 47.289062 120.328125 47.015625 C 121.230469 46.742188 122.140625 46.515625 123.058594 46.332031 C 123.980469 46.148438 124.910156 46.011719 125.84375 45.917969 C 126.777344 45.824219 127.714844 45.78125 128.65625 45.78125 L 147.214844 45.78125 L 147.214844 8.957031 L 128.65625 8.957031 C 127.582031 8.960938 126.507812 8.988281 125.433594 9.042969 C 124.363281 9.097656 123.289062 9.175781 122.222656 9.28125 C 121.152344 9.390625 120.085938 9.523438 119.023438 9.679688 C 117.960938 9.839844 116.902344 10.023438 115.851562 10.234375 C 114.796875 10.445312 113.75 10.679688 112.707031 10.941406 C 111.664062 11.203125 110.628906 11.492188 109.601562 11.804688 C 108.574219 12.117188 107.554688 12.453125 106.542969 12.816406 C 105.53125 13.179688 104.53125 13.566406 103.539062 13.976562 C 102.546875 14.390625 101.5625 14.824219 100.59375 15.285156 C 99.621094 15.746094 98.664062 16.226562 97.714844 16.734375 C 96.765625 17.242188 95.832031 17.769531 94.910156 18.324219 C 93.988281 18.875 93.082031 19.449219 92.1875 20.046875 C 91.296875 20.644531 90.417969 21.261719 89.554688 21.902344 C 88.691406 22.542969 87.84375 23.203125 87.015625 23.886719 C 86.183594 24.566406 85.371094 25.269531 84.574219 25.988281 C 83.777344 26.710938 83 27.453125 82.238281 28.210938 C 81.480469 28.96875 80.738281 29.746094 80.015625 30.542969 C 79.292969 31.339844 78.59375 32.152344 77.910156 32.984375 C 77.226562 33.8125 76.566406 34.660156 75.925781 35.523438 C 75.285156 36.382812 74.664062 37.261719 74.066406 38.15625 C 73.46875 39.046875 72.894531 39.957031 72.339844 40.875 C 71.789062 41.796875 71.257812 42.730469 70.75 43.679688 C 70.242188 44.625 69.757812 45.585938 69.296875 46.554688 C 68.835938 47.527344 68.402344 48.507812 67.988281 49.5 C 67.574219 50.492188 67.1875 51.492188 66.824219 52.503906 C 66.460938 53.515625 66.121094 54.535156 65.808594 55.5625 C 65.496094 56.589844 65.207031 57.625 64.945312 58.667969 C 64.679688 59.710938 64.445312 60.757812 64.234375 61.8125 C 64.019531 62.867188 63.835938 63.921875 63.675781 64.984375 C 63.515625 66.050781 63.382812 67.113281 63.273438 68.183594 C 63.167969 69.253906 63.085938 70.324219 63.03125 71.398438 C 62.976562 72.472656 62.945312 73.542969 62.945312 74.621094 Z M 62.945312 74.621094"/></g><g clip-path="url(#b)"><path fill="#007BFF" d="M 342.371094 168.984375 C 341.433594 168.984375 340.496094 168.9375 339.5625 168.847656 C 338.625 168.753906 337.699219 168.617188 336.777344 168.433594 C 335.855469 168.25 334.945312 168.023438 334.046875 167.75 C 333.148438 167.476562 332.265625 167.160156 331.394531 166.800781 C 330.527344 166.441406 329.679688 166.039062 328.851562 165.597656 C 328.023438 165.152344 327.21875 164.671875 326.4375 164.148438 C 325.65625 163.628906 324.902344 163.070312 324.175781 162.472656 C 323.453125 161.875 322.757812 161.246094 322.09375 160.582031 C 321.429688 159.917969 320.796875 159.222656 320.203125 158.496094 C 319.605469 157.769531 319.046875 157.015625 318.523438 156.234375 C 318.003906 155.453125 317.519531 154.648438 317.078125 153.820312 C 316.636719 152.992188 316.234375 152.144531 315.875 151.273438 C 315.515625 150.40625 315.199219 149.523438 314.925781 148.625 C 314.652344 147.726562 314.425781 146.816406 314.242188 145.894531 C 314.058594 144.972656 313.921875 144.042969 313.828125 143.109375 C 313.738281 142.171875 313.691406 141.238281 313.691406 140.296875 L 313.691406 74.484375 C 313.6875 73.410156 313.660156 72.335938 313.605469 71.265625 C 313.550781 70.191406 313.46875 69.121094 313.363281 68.054688 C 313.253906 66.984375 313.121094 65.917969 312.960938 64.859375 C 312.800781 63.796875 312.617188 62.738281 312.40625 61.683594 C 312.195312 60.632812 311.957031 59.585938 311.695312 58.542969 C 311.433594 57.503906 311.144531 56.46875 310.832031 55.441406 C 310.519531 54.414062 310.179688 53.394531 309.816406 52.382812 C 309.453125 51.375 309.066406 50.371094 308.65625 49.378906 C 308.242188 48.390625 307.808594 47.40625 307.347656 46.4375 C 306.886719 45.46875 306.402344 44.507812 305.894531 43.5625 C 305.390625 42.617188 304.859375 41.683594 304.308594 40.761719 C 303.753906 39.839844 303.179688 38.933594 302.582031 38.042969 C 301.984375 37.148438 301.367188 36.269531 300.726562 35.410156 C 300.085938 34.546875 299.425781 33.699219 298.746094 32.871094 C 298.0625 32.039062 297.363281 31.226562 296.640625 30.433594 C 295.921875 29.636719 295.179688 28.859375 294.421875 28.101562 C 293.660156 27.339844 292.882812 26.601562 292.089844 25.878906 C 291.292969 25.15625 290.480469 24.457031 289.652344 23.773438 C 288.820312 23.09375 287.976562 22.433594 287.113281 21.792969 C 286.25 21.152344 285.375 20.535156 284.480469 19.9375 C 283.589844 19.339844 282.683594 18.765625 281.761719 18.210938 C 280.84375 17.660156 279.910156 17.128906 278.960938 16.621094 C 278.015625 16.113281 277.058594 15.628906 276.089844 15.171875 C 275.117188 14.710938 274.136719 14.273438 273.144531 13.863281 C 272.152344 13.449219 271.152344 13.0625 270.144531 12.699219 C 269.132812 12.335938 268.113281 12 267.085938 11.683594 C 266.058594 11.371094 265.027344 11.082031 263.984375 10.820312 C 262.945312 10.558594 261.898438 10.320312 260.84375 10.109375 C 259.792969 9.898438 258.734375 9.714844 257.671875 9.554688 C 256.609375 9.394531 255.546875 9.261719 254.476562 9.152344 C 253.410156 9.046875 252.339844 8.964844 251.265625 8.910156 C 250.195312 8.855469 249.121094 8.828125 248.046875 8.824219 L 229.492188 8.824219 L 229.492188 45.964844 L 248.046875 45.964844 C 248.988281 45.964844 249.925781 46.011719 250.859375 46.105469 C 251.792969 46.195312 252.722656 46.332031 253.644531 46.515625 C 254.566406 46.699219 255.476562 46.929688 256.375 47.199219 C 257.273438 47.472656 258.15625 47.789062 259.023438 48.148438 C 259.890625 48.507812 260.738281 48.910156 261.566406 49.351562 C 262.394531 49.796875 263.199219 50.277344 263.980469 50.800781 C 264.761719 51.324219 265.515625 51.882812 266.242188 52.476562 C 266.96875 53.074219 267.664062 53.703125 268.328125 54.367188 C 268.992188 55.03125 269.621094 55.726562 270.21875 56.453125 C 270.8125 57.179688 271.375 57.933594 271.894531 58.714844 C 272.417969 59.496094 272.898438 60.300781 273.34375 61.128906 C 273.785156 61.957031 274.1875 62.808594 274.546875 63.675781 C 274.90625 64.542969 275.222656 65.425781 275.492188 66.324219 C 275.765625 67.226562 275.992188 68.136719 276.175781 69.054688 C 276.359375 69.976562 276.5 70.90625 276.589844 71.839844 C 276.683594 72.777344 276.726562 73.714844 276.726562 74.652344 L 276.726562 140.464844 C 276.757812 146.574219 277.648438 152.554688 279.40625 158.40625 C 281.164062 164.257812 283.710938 169.742188 287.054688 174.855469 C 291.34375 170.988281 295.972656 167.582031 300.9375 164.628906 C 301.414062 164.378906 301.914062 164.179688 302.429688 164.023438 C 302.945312 163.871094 303.472656 163.765625 304.007812 163.710938 C 304.542969 163.65625 305.078125 163.65625 305.617188 163.703125 C 306.152344 163.753906 306.679688 163.851562 307.199219 164.003906 C 307.714844 164.152344 308.214844 164.351562 308.695312 164.597656 C 309.171875 164.84375 309.625 165.132812 310.050781 165.464844 C 310.472656 165.796875 310.863281 166.167969 311.214844 166.574219 C 311.570312 166.980469 311.882812 167.417969 312.152344 167.882812 C 312.421875 168.351562 312.644531 168.839844 312.820312 169.347656 C 312.996094 169.859375 313.121094 170.378906 313.199219 170.914062 C 313.273438 171.445312 313.300781 171.984375 313.273438 172.519531 C 313.246094 173.058594 313.167969 173.589844 313.039062 174.113281 C 312.914062 174.636719 312.734375 175.144531 312.511719 175.632812 C 312.285156 176.125 312.015625 176.585938 311.703125 177.027344 C 311.386719 177.464844 311.035156 177.867188 310.644531 178.238281 C 310.25 178.609375 309.828125 178.9375 309.371094 179.226562 C 304.40625 182.050781 299.886719 185.46875 295.8125 189.472656 C 291.738281 193.476562 288.242188 197.9375 285.332031 202.851562 C 282.507812 207.699219 280.363281 212.828125 278.898438 218.242188 C 277.433594 223.65625 276.699219 229.171875 276.695312 234.78125 L 276.695312 300.59375 C 276.695312 301.53125 276.648438 302.46875 276.554688 303.40625 C 276.464844 304.339844 276.328125 305.269531 276.144531 306.1875 C 275.960938 307.109375 275.730469 308.019531 275.460938 308.921875 C 275.1875 309.820312 274.871094 310.703125 274.511719 311.570312 C 274.152344 312.4375 273.75 313.285156 273.308594 314.117188 C 272.867188 314.945312 272.382812 315.75 271.859375 316.53125 C 271.339844 317.3125 270.78125 318.066406 270.183594 318.792969 C 269.589844 319.519531 268.957031 320.214844 268.292969 320.878906 C 267.628906 321.542969 266.933594 322.171875 266.210938 322.769531 C 265.484375 323.363281 264.730469 323.921875 263.949219 324.445312 C 263.167969 324.96875 262.363281 325.449219 261.535156 325.890625 C 260.707031 326.335938 259.859375 326.738281 258.988281 327.097656 C 258.121094 327.457031 257.238281 327.773438 256.339844 328.042969 C 255.441406 328.316406 254.53125 328.546875 253.609375 328.730469 C 252.6875 328.910156 251.761719 329.050781 250.824219 329.140625 C 249.890625 329.234375 248.953125 329.28125 248.015625 329.28125 L 229.457031 329.28125 L 229.457031 366.269531 L 248.015625 366.269531 C 249.089844 366.265625 250.160156 366.238281 251.234375 366.183594 C 252.304688 366.128906 253.375 366.046875 254.445312 365.941406 C 255.511719 365.832031 256.578125 365.699219 257.640625 365.539062 C 258.699219 365.378906 259.757812 365.195312 260.8125 364.984375 C 261.863281 364.773438 262.910156 364.535156 263.949219 364.273438 C 264.992188 364.011719 266.027344 363.722656 267.054688 363.410156 C 268.082031 363.09375 269.097656 362.757812 270.109375 362.394531 C 271.121094 362.03125 272.121094 361.644531 273.113281 361.230469 C 274.101562 360.820312 275.085938 360.382812 276.054688 359.921875 C 277.023438 359.464844 277.984375 358.980469 278.929688 358.472656 C 279.875 357.964844 280.808594 357.433594 281.730469 356.882812 C 282.648438 356.328125 283.554688 355.753906 284.449219 355.15625 C 285.339844 354.5625 286.21875 353.941406 287.082031 353.300781 C 287.941406 352.660156 288.789062 352 289.617188 351.320312 C 290.449219 350.636719 291.261719 349.9375 292.054688 349.214844 C 292.851562 348.492188 293.628906 347.753906 294.386719 346.992188 C 295.148438 346.234375 295.886719 345.457031 296.609375 344.660156 C 297.328125 343.867188 298.03125 343.054688 298.710938 342.222656 C 299.394531 341.394531 300.054688 340.546875 300.695312 339.683594 C 301.332031 338.824219 301.953125 337.945312 302.546875 337.050781 C 303.144531 336.160156 303.71875 335.253906 304.273438 334.332031 C 304.824219 333.410156 305.355469 332.476562 305.863281 331.53125 C 306.371094 330.585938 306.851562 329.625 307.3125 328.65625 C 307.773438 327.6875 308.207031 326.703125 308.621094 325.714844 C 309.03125 324.722656 309.421875 323.71875 309.785156 322.710938 C 310.144531 321.699219 310.484375 320.679688 310.796875 319.652344 C 311.109375 318.625 311.398438 317.589844 311.660156 316.550781 C 311.921875 315.507812 312.160156 314.460938 312.371094 313.410156 C 312.582031 312.355469 312.769531 311.296875 312.929688 310.234375 C 313.085938 309.175781 313.222656 308.109375 313.328125 307.039062 C 313.4375 305.972656 313.515625 304.902344 313.570312 303.828125 C 313.625 302.757812 313.65625 301.683594 313.65625 300.609375 L 313.65625 234.796875 C 313.660156 233.859375 313.710938 232.921875 313.804688 231.992188 C 313.898438 231.058594 314.039062 230.132812 314.222656 229.210938 C 314.410156 228.292969 314.636719 227.386719 314.914062 226.488281 C 315.1875 225.589844 315.503906 224.710938 315.867188 223.84375 C 316.226562 222.980469 316.628906 222.132812 317.070312 221.308594 C 317.515625 220.480469 318 219.679688 318.519531 218.898438 C 319.042969 218.121094 319.601562 217.371094 320.199219 216.644531 C 320.792969 215.921875 321.425781 215.226562 322.089844 214.566406 C 322.75 213.902344 323.445312 213.277344 324.171875 212.683594 C 324.898438 212.089844 325.652344 211.53125 326.429688 211.011719 C 327.210938 210.492188 328.015625 210.011719 328.839844 209.570312 C 329.667969 209.128906 330.515625 208.726562 331.382812 208.371094 C 332.25 208.011719 333.128906 207.695312 334.027344 207.425781 C 334.925781 207.152344 335.832031 206.925781 336.753906 206.742188 C 337.671875 206.558594 338.597656 206.421875 339.53125 206.332031 C 340.464844 206.238281 341.402344 206.195312 342.339844 206.195312 L 373.175781 206.195312 L 373.175781 168.984375 Z M 342.371094 168.984375"/></g><g fill="#007BFF"><use x="88.61" y="219.022" xmlns:xlink="http://www.w3.org/1999/xlink" xlink:href="#c" xlink:type="simple" xlink:actuate="onLoad" xlink:show="embed"/></g><g fill="#007BFF"><use x="150.223" y="296.09" xmlns:xlink="http://www.w3.org/1999/xlink" xlink:href="#d" xlink:type="simple" xlink:actuate="onLoad" xlink:show="embed"/></g></svg>